<svg xmlns="http://www.w3.org/2000/svg" viewBox="0 0 750 500"><g id="freepik--background-complete--inject-15"><polygon points="511.84 73.48 442.05 418.63 664.58 418.63 584.89 73.48 511.84 73.48" style="fill:#fafafa"></polygon><polygon points="339.73 73.48 269.93 418.63 492.46 418.63 412.77 73.48 339.73 73.48" style="fill:#f5f5f5"></polygon><polygon points="166.58 73.48 96.79 418.63 319.32 418.63 239.63 73.48 166.58 73.48" style="fill:#fafafa"></polygon><path d="M466.37,433.22c0,.15-10.62.26-23.71.26s-23.71-.11-23.71-.26,10.62-.26,23.71-.26S466.37,433.08,466.37,433.22Z" style="fill:#e0e0e0"></path><path d="M524.44,470.22c0,.15-12,.26-26.85.26s-26.85-.11-26.85-.26,12-.26,26.85-.26S524.44,470.08,524.44,470.22Z" style="fill:#e0e0e0"></path><path d="M561.5,436.56c0,.15-10.37.26-23.16.26s-23.18-.11-23.18-.26,10.38-.26,23.18-.26S561.5,436.42,561.5,436.56Z" style="fill:#e0e0e0"></path><path d="M617.75,456.76c0,.14-10.15.26-22.68.26s-22.68-.12-22.68-.26,10.15-.26,22.68-.26S617.75,456.61,617.75,456.76Z" style="fill:#e0e0e0"></path><path d="M653.1,434.45c0,.15-9.87.26-22,.26s-22-.11-22-.26,9.87-.26,22-.26S653.1,434.31,653.1,434.45Z" style="fill:#e0e0e0"></path><path d="M720.23,468.06c0,.14-10.77.26-24.06.26s-24.06-.12-24.06-.26,10.77-.26,24.06-.26S720.23,467.91,720.23,468.06Z" style="fill:#e0e0e0"></path><path d="M77.43,418.63c.1.1-14.22,15.59-32,34.59s-32.26,34.34-32.37,34.24,14.21-15.58,32-34.59S77.32,418.53,77.43,418.63Z" style="fill:#e0e0e0"></path><path d="M118.34,418.63c.12.08-10.71,15.56-24.19,34.56s-24.5,34.35-24.62,34.27,10.72-15.56,24.2-34.57S118.22,418.55,118.34,418.63Z" style="fill:#e0e0e0"></path><path d="M153.77,418.63c.14.05-5.46,15.5-12.49,34.5s-12.84,34.38-13,34.33S133.76,472,140.79,453,153.64,418.58,153.77,418.63Z" style="fill:#e0e0e0"></path><path d="M192,418.63c.15,0-1.07,14.81-2.7,33.06s-3.08,33-3.23,33,1.07-14.81,2.71-33.06S191.82,418.62,192,418.63Z" style="fill:#e0e0e0"></path><path d="M237.36,418.63c.14,0-1.07,14.81-2.7,33.06s-3.09,33-3.23,33,1.07-14.81,2.71-33.06S237.22,418.62,237.36,418.63Z" style="fill:#e0e0e0"></path><path d="M282.76,418.63c.14,0-1.07,14.81-2.71,33.06s-3.08,33-3.22,33,1.07-14.81,2.71-33.06S282.62,418.62,282.76,418.63Z" style="fill:#e0e0e0"></path><path d="M328.16,418.63c.14,0-.41,14.54-1.22,32.45s-1.6,32.44-1.75,32.43.41-14.53,1.23-32.45S328,418.62,328.16,418.63Z" style="fill:#e0e0e0"></path><path d="M373.56,418.63c.14,0,.26,14.79.26,33s-.12,33-.26,33-.26-14.79-.26-33S373.41,418.63,373.56,418.63Z" style="fill:#e0e0e0"></path><path d="M419,418.63c.15,0,.26,14,.26,31.35s-.11,31.35-.26,31.35-.26-14-.26-31.35S418.81,418.63,419,418.63Z" style="fill:#e0e0e0"></path><path d="M464.35,418.63c.14,0,2.2,14,4.59,31.31s4.21,31.37,4.07,31.39-2.2-14-4.59-31.32S464.21,418.65,464.35,418.63Z" style="fill:#e0e0e0"></path><path d="M509.75,418.63c.14,0,4.24,14,9.15,31.28s8.79,31.38,8.65,31.42-4.23-14-9.15-31.28S509.61,418.67,509.75,418.63Z" style="fill:#e0e0e0"></path><path d="M555.15,418.63c.13-.06,6.31,13.32,13.79,29.88s13.45,30,13.32,30.1-6.3-13.32-13.79-29.88S555,418.69,555.15,418.63Z" style="fill:#e0e0e0"></path><path d="M600.55,418.63c.13-.06,6.31,13.32,13.79,29.88s13.45,30,13.32,30.1-6.3-13.32-13.79-29.88S600.42,418.69,600.55,418.63Z" style="fill:#e0e0e0"></path><path d="M646,418.63c.12-.07,7.18,13,15.75,29.21s15.43,29.39,15.3,29.45-7.18-13-15.76-29.21S645.82,418.7,646,418.63Z" style="fill:#e0e0e0"></path><path d="M691.34,418.63c.13-.07,8.08,13.3,17.76,29.86s17.42,30.05,17.3,30.12-8.07-13.29-17.75-29.86S691.22,418.7,691.34,418.63Z" style="fill:#e0e0e0"></path><path d="M43.21,455.56c0,.15-8.43.26-18.82.26s-18.83-.11-18.83-.26,8.43-.26,18.83-.26S43.21,455.42,43.21,455.56Z" style="fill:#e0e0e0"></path><path d="M104,438.34c0,.14-10,.26-22.36.26s-22.37-.12-22.37-.26,10-.26,22.37-.26S104,438.2,104,438.34Z" style="fill:#e0e0e0"></path><path d="M132.7,474.79c0,.14-12.15.26-27.12.26s-27.12-.12-27.12-.26,12.14-.26,27.12-.26S132.7,474.64,132.7,474.79Z" style="fill:#e0e0e0"></path><path d="M190.19,438.34c0,.14-9,.26-20.2.26s-20.2-.12-20.2-.26,9.05-.26,20.2-.26S190.19,438.2,190.19,438.34Z" style="fill:#e0e0e0"></path><path d="M232.32,474.79c0,.14-9.93.26-22.17.26s-22.18-.12-22.18-.26,9.93-.26,22.18-.26S232.32,474.64,232.32,474.79Z" style="fill:#e0e0e0"></path><path d="M281.23,435.66c0,.15-10.25.26-22.9.26s-22.9-.11-22.9-.26,10.25-.26,22.9-.26S281.23,435.52,281.23,435.66Z" style="fill:#e0e0e0"></path><path d="M326.26,460.26c0,.15-10.6.26-23.67.26s-23.67-.11-23.67-.26,10.6-.26,23.67-.26S326.26,460.12,326.26,460.26Z" style="fill:#e0e0e0"></path><path d="M373.56,442.83c0,.14-10.38.26-23.19.26s-23.18-.12-23.18-.26,10.38-.26,23.18-.26S373.56,442.68,373.56,442.83Z" style="fill:#e0e0e0"></path><path d="M419,472.66c0,.14-10.16.26-22.69.26s-22.7-.12-22.7-.26,10.16-.26,22.7-.26S419,472.51,419,472.66Z" style="fill:#e0e0e0"></path><path d="M442.73,9.84c11.36,35.81,66.71,74.78,115.84,72.72S655.9,46.37,661.84,9.84Z" style="fill:#ebebeb"></path><path d="M661.84,9.84s0,.24-.11.71l-.39,2.09A56.86,56.86,0,0,1,659,20.45,66.42,66.42,0,0,1,653.22,32,86.53,86.53,0,0,1,642.7,45.41,111,111,0,0,1,627,58.93a130.2,130.2,0,0,1-20.54,11.94c-3.79,1.78-7.79,3.37-11.91,4.86s-8.44,2.73-12.87,3.8A135.51,135.51,0,0,1,568,82a118.05,118.05,0,0,1-14.29.86,109.84,109.84,0,0,1-14.27-1.22,125.39,125.39,0,0,1-13.59-3,139.4,139.4,0,0,1-24.47-9.51,145,145,0,0,1-36.23-25.55,107.47,107.47,0,0,1-11.3-12.81A87.28,87.28,0,0,1,446.94,20a66.17,66.17,0,0,1-3.31-7.45l-.69-2c-.15-.46-.21-.69-.21-.69s.09.22.26.67.42,1.12.73,2a75.14,75.14,0,0,0,3.4,7.38,88.54,88.54,0,0,0,7,10.79A110.14,110.14,0,0,0,465.43,43.4a145.64,145.64,0,0,0,36.19,25.38A139.84,139.84,0,0,0,526,78.23a127.4,127.4,0,0,0,13.54,2.93,110.53,110.53,0,0,0,14.2,1.21A117.14,117.14,0,0,0,568,81.51,134.83,134.83,0,0,0,581.59,79c4.42-1.07,8.69-2.36,12.82-3.78s8.09-3.06,11.88-4.83a129.87,129.87,0,0,0,20.49-11.85,112.36,112.36,0,0,0,15.66-13.42A87.59,87.59,0,0,0,653,31.81a67.34,67.34,0,0,0,5.86-11.43,60.5,60.5,0,0,0,2.4-7.77c.19-.9.33-1.59.43-2.07S661.84,9.84,661.84,9.84Z" style="fill:#e0e0e0"></path><path d="M633.88,9.84s0,.18-.08.53-.16.89-.28,1.55a41.57,41.57,0,0,1-1.71,5.83,56.84,56.84,0,0,1-12.15,18.62A83.39,83.39,0,0,1,608,46.45a96.09,96.09,0,0,1-15.3,8.9c-2.83,1.33-5.8,2.51-8.87,3.62s-6.29,2-9.59,2.84A100.45,100.45,0,0,1,564,63.67a88.93,88.93,0,0,1-10.65.64,80.92,80.92,0,0,1-10.64-.9,98.79,98.79,0,0,1-10.13-2.2,104.08,104.08,0,0,1-18.23-7.1,107.84,107.84,0,0,1-27-19A72.49,72.49,0,0,1,473.8,17.4a50.7,50.7,0,0,1-2.46-5.55c-.21-.64-.38-1.14-.5-1.5s-.15-.51-.15-.51.07.16.2.5.32.84.55,1.47a53.9,53.9,0,0,0,2.54,5.5A73.78,73.78,0,0,0,487.63,34.8a108.51,108.51,0,0,0,27,18.88,103.52,103.52,0,0,0,18.16,7,92.63,92.63,0,0,0,10.07,2.18,81.58,81.58,0,0,0,10.56.9A88.18,88.18,0,0,0,564,63.15a97.56,97.56,0,0,0,10.14-1.84c3.28-.79,6.46-1.75,9.54-2.8s6-2.28,8.84-3.6a96.52,96.52,0,0,0,15.25-8.81,83.43,83.43,0,0,0,11.66-10,57.49,57.49,0,0,0,12.23-18.43,45.58,45.58,0,0,0,1.8-5.78l.33-1.54C633.83,10,633.88,9.84,633.88,9.84Z" style="fill:#e0e0e0"></path><path d="M607.3,9.84a2.47,2.47,0,0,1,0,.36l-.19,1.05a25.92,25.92,0,0,1-1.14,3.94,38.17,38.17,0,0,1-8.17,12.58,60.44,60.44,0,0,1-18.2,12.82c-1.91.9-3.92,1.7-6,2.45s-4.24,1.38-6.47,1.92A55.59,55.59,0,0,1,553,46.6a27.18,27.18,0,0,1-3.62-.17c-1.2-.13-2.39-.23-3.56-.39A64.07,64.07,0,0,1,539,44.51a65.92,65.92,0,0,1-6.41-2.12c-1-.38-2-.87-3-1.29s-2-.84-2.9-1.35a74.16,74.16,0,0,1-18.21-12.86,47,47,0,0,1-9.1-12,21.39,21.39,0,0,1-1-2.12c-.23-.64-.44-1.18-.6-1.63s-.28-.75-.37-1a1.3,1.3,0,0,1-.1-.34s.06.11.15.33.24.57.41,1,.4,1,.65,1.6a22.37,22.37,0,0,0,1.08,2.09,48.16,48.16,0,0,0,9.18,11.78,74.69,74.69,0,0,0,18.17,12.7c.91.51,1.9.89,2.88,1.33s2,.91,3,1.27a63.15,63.15,0,0,0,6.36,2.1,61.63,61.63,0,0,0,6.77,1.5c1.17.16,2.35.26,3.53.39a25.18,25.18,0,0,0,3.59.16,54.68,54.68,0,0,0,14-1.61c2.21-.53,4.35-1.18,6.42-1.89s4.06-1.53,6-2.41a60.66,60.66,0,0,0,18.13-12.65,39,39,0,0,0,8.26-12.4A30.66,30.66,0,0,0,607,11.23c.1-.44.18-.78.23-1A2.24,2.24,0,0,1,607.3,9.84Z" style="fill:#e0e0e0"></path><path d="M103.52,9.84c11.36,35.81,66.72,74.78,115.85,72.72S316.7,46.37,322.64,9.84Z" style="fill:#ebebeb"></path><path d="M322.64,9.84s0,.24-.12.71l-.39,2.09a55.46,55.46,0,0,1-2.31,7.81A65.59,65.59,0,0,1,314,32,86.53,86.53,0,0,1,303.5,45.41a111.14,111.14,0,0,1-15.68,13.52,129.3,129.3,0,0,1-20.54,11.94c-3.79,1.78-7.78,3.37-11.9,4.86s-8.44,2.73-12.87,3.8A136,136,0,0,1,228.83,82a118.18,118.18,0,0,1-14.29.86,109.69,109.69,0,0,1-14.27-1.22,126.09,126.09,0,0,1-13.6-3,139,139,0,0,1-24.46-9.51A145,145,0,0,1,126,43.66a108.22,108.22,0,0,1-11.29-12.81A86.13,86.13,0,0,1,107.74,20a66.62,66.62,0,0,1-3.32-7.45c-.29-.87-.52-1.54-.68-2s-.22-.69-.22-.69.1.22.27.67l.73,2a72.29,72.29,0,0,0,3.39,7.38,88.75,88.75,0,0,0,7,10.79A110.14,110.14,0,0,0,126.23,43.4a145.46,145.46,0,0,0,36.19,25.38,139.53,139.53,0,0,0,24.39,9.45,127.75,127.75,0,0,0,13.53,2.93,110.69,110.69,0,0,0,14.2,1.21,117.31,117.31,0,0,0,14.23-.86A135.34,135.34,0,0,0,242.39,79c4.41-1.07,8.69-2.36,12.82-3.78s8.09-3.06,11.87-4.83a129,129,0,0,0,20.49-11.85,111.79,111.79,0,0,0,15.66-13.42,87,87,0,0,0,10.54-13.35,65.9,65.9,0,0,0,5.86-11.43,57.42,57.42,0,0,0,2.4-7.77l.44-2.07C322.57,10.07,322.64,9.84,322.64,9.84Z" style="fill:#e0e0e0"></path><path d="M294.68,9.84s0,.18-.08.53-.16.89-.29,1.55a40.24,40.24,0,0,1-1.71,5.83,56.78,56.78,0,0,1-12.14,18.62,84,84,0,0,1-11.68,10.08,96.53,96.53,0,0,1-15.3,8.9c-2.83,1.33-5.81,2.51-8.88,3.62s-6.29,2-9.59,2.84a100.76,100.76,0,0,1-10.19,1.86,89.22,89.22,0,0,1-10.66.64,80.77,80.77,0,0,1-10.63-.9,98.21,98.21,0,0,1-10.13-2.2,104.19,104.19,0,0,1-18.24-7.1,107.58,107.58,0,0,1-27-19A72.49,72.49,0,0,1,134.6,17.4a48.81,48.81,0,0,1-2.46-5.55c-.22-.64-.38-1.14-.5-1.5s-.16-.51-.16-.51.08.16.21.5.31.84.55,1.47a53.9,53.9,0,0,0,2.54,5.5A73.78,73.78,0,0,0,148.43,34.8a108.32,108.32,0,0,0,26.95,18.88,103.72,103.72,0,0,0,18.15,7,93.15,93.15,0,0,0,10.07,2.18,81.89,81.89,0,0,0,10.57.9,87.88,87.88,0,0,0,10.58-.64,96.61,96.61,0,0,0,10.14-1.84c3.29-.79,6.47-1.75,9.55-2.8s6-2.28,8.83-3.6a97.09,97.09,0,0,0,15.26-8.81,84.6,84.6,0,0,0,11.66-10,57.26,57.26,0,0,0,12.22-18.43,44,44,0,0,0,1.8-5.78c.15-.66.26-1.17.33-1.54A5.28,5.28,0,0,1,294.68,9.84Z" style="fill:#e0e0e0"></path><path d="M268.1,9.84a2,2,0,0,1-.05.36l-.18,1.05a27.15,27.15,0,0,1-1.14,3.94,38.23,38.23,0,0,1-8.18,12.58,60.31,60.31,0,0,1-18.2,12.82c-1.9.9-3.91,1.7-6,2.45s-4.25,1.38-6.48,1.92a55.51,55.51,0,0,1-14.07,1.64,27.41,27.41,0,0,1-3.63-.17c-1.19-.13-2.39-.23-3.56-.39a64.63,64.63,0,0,1-6.83-1.53,66.83,66.83,0,0,1-6.41-2.12c-1-.38-2-.87-3-1.29s-2-.84-2.9-1.35a74.16,74.16,0,0,1-18.21-12.86,46.76,46.76,0,0,1-9.1-12,19.38,19.38,0,0,1-1-2.12l-.61-1.63-.36-1a1.79,1.79,0,0,1-.11-.34,2.29,2.29,0,0,1,.16.33l.41,1c.18.44.4,1,.65,1.6a22.37,22.37,0,0,0,1.08,2.09,47.67,47.67,0,0,0,9.18,11.78,74.62,74.62,0,0,0,18.16,12.7c.92.51,1.91.89,2.88,1.33s2,.91,3,1.27a62.32,62.32,0,0,0,6.36,2.1,61.12,61.12,0,0,0,6.77,1.5c1.16.16,2.34.26,3.53.39a25.11,25.11,0,0,0,3.58.16,54.62,54.62,0,0,0,14-1.61c2.22-.53,4.36-1.18,6.43-1.89s4.06-1.53,6-2.41a60.71,60.71,0,0,0,18.14-12.65,38.74,38.74,0,0,0,8.25-12.4,31.06,31.06,0,0,0,1.23-3.88c.1-.44.17-.78.23-1A2.24,2.24,0,0,1,268.1,9.84Z" style="fill:#e0e0e0"></path><path d="M261.82,9.84c11.36,35.81,66.71,74.78,115.84,72.72S475,46.37,480.93,9.84Z" style="fill:#ebebeb"></path><path d="M480.93,9.84s0,.24-.11.71l-.39,2.09a55.46,55.46,0,0,1-2.31,7.81A66.3,66.3,0,0,1,472.32,32a87.25,87.25,0,0,1-10.53,13.44,111,111,0,0,1-15.67,13.52,129.75,129.75,0,0,1-20.54,11.94c-3.79,1.78-7.79,3.37-11.91,4.86s-8.44,2.73-12.87,3.8A135.51,135.51,0,0,1,387.12,82a118.05,118.05,0,0,1-14.29.86,109.84,109.84,0,0,1-14.27-1.22,125.39,125.39,0,0,1-13.59-3,139.4,139.4,0,0,1-24.47-9.51,145,145,0,0,1-36.23-25.55A108.37,108.37,0,0,1,273,30.85,87.28,87.28,0,0,1,266,20a66.17,66.17,0,0,1-3.31-7.45l-.69-2c-.15-.46-.21-.69-.21-.69s.1.22.26.67l.74,2a72.29,72.29,0,0,0,3.39,7.38,88.54,88.54,0,0,0,7,10.79A111.09,111.09,0,0,0,284.52,43.4a145.64,145.64,0,0,0,36.19,25.38,139.64,139.64,0,0,0,24.4,9.45,126.68,126.68,0,0,0,13.53,2.93,110.53,110.53,0,0,0,14.2,1.21,117.14,117.14,0,0,0,14.22-.86A134.83,134.83,0,0,0,400.68,79c4.42-1.07,8.69-2.36,12.83-3.78s8.09-3.06,11.87-4.83a129.42,129.42,0,0,0,20.49-11.85,112.36,112.36,0,0,0,15.66-13.42,87,87,0,0,0,10.54-13.35,67.34,67.34,0,0,0,5.86-11.43,60.5,60.5,0,0,0,2.4-7.77c.19-.9.33-1.59.43-2.07S480.93,9.84,480.93,9.84Z" style="fill:#e0e0e0"></path><path d="M453,9.84s0,.18-.08.53-.16.89-.28,1.55a41.57,41.57,0,0,1-1.71,5.83,56.84,56.84,0,0,1-12.15,18.62,83.85,83.85,0,0,1-11.67,10.08,96.64,96.64,0,0,1-15.31,8.9C409,56.68,406,57.86,402.9,59s-6.29,2-9.59,2.84a100.45,100.45,0,0,1-10.2,1.86,88.93,88.93,0,0,1-10.65.64,80.92,80.92,0,0,1-10.64-.9,98.79,98.79,0,0,1-10.13-2.2,104.08,104.08,0,0,1-18.23-7.1,107.84,107.84,0,0,1-27-19A72.75,72.75,0,0,1,292.89,17.4a48.38,48.38,0,0,1-2.45-5.55l-.51-1.5c-.11-.34-.15-.51-.15-.51a4.87,4.87,0,0,1,.2.5c.13.35.32.84.55,1.47a53.9,53.9,0,0,0,2.54,5.5A73.78,73.78,0,0,0,306.72,34.8a108.51,108.51,0,0,0,26.95,18.88,103.83,103.83,0,0,0,18.16,7,92.63,92.63,0,0,0,10.07,2.18,81.58,81.58,0,0,0,10.57.9,88.14,88.14,0,0,0,10.58-.64,97.08,97.08,0,0,0,10.14-1.84c3.28-.79,6.47-1.75,9.54-2.8s6-2.28,8.84-3.6a96.52,96.52,0,0,0,15.25-8.81,83.43,83.43,0,0,0,11.66-10,57.32,57.32,0,0,0,12.23-18.43,45.58,45.58,0,0,0,1.8-5.78l.33-1.54C452.92,10,453,9.84,453,9.84Z" style="fill:#e0e0e0"></path><path d="M426.39,9.84a1.41,1.41,0,0,1,0,.36q-.08.39-.18,1.05A28.51,28.51,0,0,1,425,15.19a38.39,38.39,0,0,1-8.18,12.58,60.44,60.44,0,0,1-18.2,12.82c-1.91.9-3.92,1.7-6,2.45s-4.24,1.38-6.47,1.92a55.54,55.54,0,0,1-14.08,1.64,27.18,27.18,0,0,1-3.62-.17c-1.2-.13-2.39-.23-3.56-.39a64.07,64.07,0,0,1-6.83-1.53,66.83,66.83,0,0,1-6.41-2.12c-1-.38-2-.87-3-1.29s-2-.84-2.9-1.35a74.16,74.16,0,0,1-18.21-12.86,47,47,0,0,1-9.1-12c-.38-.8-.82-1.47-1-2.12s-.44-1.18-.6-1.63l-.37-1a1.3,1.3,0,0,1-.1-.34,1.85,1.85,0,0,1,.15.33c.11.24.24.57.42,1s.39,1,.65,1.6a19.93,19.93,0,0,0,1.07,2.09,48.16,48.16,0,0,0,9.18,11.78A74.69,74.69,0,0,0,346,39.32c.91.51,1.9.89,2.88,1.33s2,.91,3,1.27a64,64,0,0,0,6.36,2.1,61.29,61.29,0,0,0,6.78,1.5c1.16.16,2.34.26,3.52.39a25.18,25.18,0,0,0,3.59.16,54.68,54.68,0,0,0,13.95-1.61c2.21-.53,4.35-1.18,6.43-1.89s4.05-1.53,5.95-2.41a60.66,60.66,0,0,0,18.13-12.65,39,39,0,0,0,8.26-12.4,30.66,30.66,0,0,0,1.22-3.88l.24-1A1.81,1.81,0,0,1,426.39,9.84Z" style="fill:#e0e0e0"></path><rect x="84" y="246.95" width="34.75" height="9.19" style="fill:#ebebeb"></rect><path d="M104.05,265.82s0-.06,0-.16v-.47c0-.44,0-1,0-1.81,0-1.59,0-3.87-.06-6.75l.1.11-34.74.07c.07-.08-.18.17.17-.18h0v9.17l-.18-.17,24.77.08,7.31,0,2,0h.7s0,0-.16,0h-.49l-1.94,0-7.27.05L69.3,266h-.17v-9.35h0l.18-.18,34.74.07h.11v.11c0,2.9,0,5.21-.06,6.81,0,.76,0,1.36,0,1.79l0,.45C104.06,265.78,104.06,265.83,104.05,265.82Z" style="fill:#e0e0e0"></path><rect x="128.17" y="162.81" width="34.75" height="9.19" style="fill:#ebebeb"></rect><path d="M464.59,307.22s0-.07,0-.18v-.52c0-.48,0-1.14,0-2,0-1.74,0-4.24-.06-7.4l.11.12-38.14.07.19-.19h0v10.09l-.19-.19,27.18.09,8,.05,2.17,0,.56,0h-.52l-2.12,0-8,.05-27.31.09h-.19v-.19c0-1.62,0-3.28,0-5v-5.13h0l.2-.2,38.14.08h.12v.12c0,3.19,0,5.71-.06,7.47,0,.84,0,1.49,0,2,0,.21,0,.37,0,.5S464.6,307.22,464.59,307.22Z" style="fill:#e0e0e0"></path><path d="M469.77,297.13a.91.91,0,0,1,0-.2c0-.14,0-.32,0-.53,0-.5,0-1.17,0-2,0-1.77,0-4.27-.07-7.35l.14.14-22.92.06c-.18.17.23-.24.19-.19h0v5.18c0,1.69,0,3.33,0,4.9l-.18-.19,16.39.09,4.78.05,1.29,0,.46,0-.42,0-1.25,0-4.73.05-16.52.09h-.19v-.18c0-1.57,0-3.21,0-4.9v-5.18h0l.2-.2,22.92.05h.14V287c0,3.11-.06,5.64-.08,7.43,0,.84,0,1.5,0,2A5.47,5.47,0,0,1,469.77,297.13Z" style="fill:#e0e0e0"></path><path d="M659.69,296.73a.86.86,0,0,1,0-.19V296q0-.7,0-2c0-1.74,0-4.25-.06-7.41l.12.12-38.15.08c.09-.09-.2.19.19-.2h0v10.08l-.19-.19,27.18.08,8,.06,2.17,0h.57l.2,0H659l-2.13,0-8,.05-27.32.09h-.19v-.19c0-1.63,0-3.28,0-5v-5.11h0c.39-.39.11-.1.2-.19l38.15.08h.12v.11c0,3.19,0,5.72-.06,7.48,0,.84,0,1.49,0,2v.5C659.69,296.68,659.69,296.73,659.69,296.73Z" style="fill:#e0e0e0"></path><path d="M664.86,286.63a.76.76,0,0,1,0-.19v-.53c0-.5,0-1.18,0-2,0-1.77,0-4.27-.07-7.34l.14.14-22.92.06c-.18.17.23-.24.19-.2h0v5.18c0,1.69,0,3.33,0,4.89l-.18-.18,16.39.09,4.78,0,1.29,0,.46,0a2.11,2.11,0,0,1-.42,0l-1.25,0-4.73.05-16.52.09h-.19v-5.08c0-.84,0-1.7,0-2.57v-2.61h0s.37-.37.2-.19l22.92,0H665v.14c0,3.11-.06,5.64-.08,7.43,0,.84,0,1.5,0,2A5.37,5.37,0,0,1,664.86,286.63Z" style="fill:#e0e0e0"></path><path d="M594.71,222.49s0-.07,0-.19,0-.3,0-.51c0-.48,0-1.14,0-2,0-1.74,0-4.25-.06-7.41l.11.12-38.14.08c.08-.09-.2.19.19-.2h0v5.11c0,1.69,0,3.34,0,5l-.19-.19,27.19.08,8,.06,2.17,0h.57a.8.8,0,0,1,.2,0H594l-2.13,0-8,.05-27.32.09h-.19V212.41h0l.2-.19,38.14.08h.12v.11c0,3.19-.05,5.72-.06,7.48,0,.84,0,1.49,0,2v.5C594.72,222.44,594.72,222.49,594.71,222.49Z" style="fill:#e0e0e0"></path><path d="M326.32,207a.86.86,0,0,1,0-.19v-.51c0-.48,0-1.14,0-2,0-1.74,0-4.25-.06-7.4l.12.11-38.15.08c.08-.09-.2.19.19-.19h0V207l-.19-.19,27.18.08,8,.06,2.17,0,.56,0h-.52l-2.12,0-8,.05-27.32.09H288V207c0-1.62,0-3.28,0-5v-5.11h0l.2-.2,38.15.08h.11v.12c0,3.18-.05,5.71-.06,7.47,0,.84,0,1.49,0,2v.5C326.32,207,326.32,207,326.32,207Z" style="fill:#e0e0e0"></path></g><g id="freepik--Floor--inject-15"><path d="M742.6,418.63c0,.14-164.81.26-368.07.26s-368.11-.12-368.11-.26,164.78-.26,368.11-.26S742.6,418.48,742.6,418.63Z" style="fill:#263238"></path></g><g id="freepik--Curtains--inject-15"><path d="M118.75,9.88C116.2,63.84,98.17,132.37,70.81,179c-10.36,17.63-30.07,53.29-30.07,53.29l.8,10c8.67,12.52,9.83,35.44,11.23,49.47,4.28,42.67,13.63,79.44,7.53,126.94H10V9.88Z" style="fill:#060C22"></path><path d="M9.77,232.23c0-.15,6.9-.26,15.41-.26s15.42.11,15.42.26-6.9.26-15.42.26S9.77,232.37,9.77,232.23Z" style="fill:#263238"></path><path d="M9.77,242.22c0-.15,6.9-.26,15.41-.26s15.42.11,15.42.26-6.9.26-15.42.26S9.77,242.36,9.77,242.22Z" style="fill:#263238"></path><path d="M41.94,94a2,2,0,0,1,0,.36c0,.26-.08.6-.13,1-.13.94-.31,2.28-.54,4-.47,3.5-1.15,8.51-2,14.68-1.65,12.41-3.77,29.56-5.7,48.55s-3.31,36.23-4.19,48.71c-.42,6.22-.76,11.26-1,14.78-.12,1.72-.21,3.07-.28,4,0,.44-.06.78-.08,1.05a1.41,1.41,0,0,1-.05.35,1.63,1.63,0,0,1,0-.36c0-.26,0-.61,0-1,0-1,.1-2.31.18-4,.16-3.5.44-8.55.84-14.8.78-12.49,2.1-29.73,4-48.73s4.11-36.15,5.85-48.55c.87-6.19,1.61-11.2,2.16-14.66.27-1.7.49-3,.64-4,.07-.43.13-.77.18-1S41.94,94,41.94,94Z" style="fill:#263238"></path><path d="M69.73,76.93a1.81,1.81,0,0,1,0,.41l-.19,1.19-.79,4.58c-.68,4-1.73,9.73-3.08,16.82C63,114.12,59,133.67,54.08,155.15S44.25,196,40.51,209.91c-1.87,7-3.42,12.61-4.53,16.49-.56,1.92-1,3.42-1.29,4.47L34.35,232a1.7,1.7,0,0,1-.14.39,2.2,2.2,0,0,1,.09-.4l.29-1.17,1.19-4.49,4.37-16.53c3.65-14,8.51-33.31,13.42-54.79s8.92-41,11.7-55.17c1.37-7.06,2.47-12.79,3.24-16.78l.88-4.57.24-1.18A2.51,2.51,0,0,1,69.73,76.93Z" style="fill:#263238"></path><path d="M20.68,332.46a.56.56,0,0,1,0-.23c0-.18,0-.41-.07-.68q-.06-1-.18-2.64c-.16-2.28-.33-5.59-.48-9.69-.3-8.19-.4-19.52.1-32s1.55-23.79,2.52-31.92c.48-4.07.91-7.36,1.26-9.62.17-1.1.3-2,.4-2.61l.12-.68c0-.15.05-.23.06-.22s0,.08,0,.23l-.07.68c-.07.65-.17,1.52-.3,2.62-.28,2.28-.66,5.57-1.1,9.64-.87,8.14-1.84,19.41-2.36,31.9s-.45,23.8-.25,32c.1,4.09.21,7.41.31,9.69q.06,1.67.09,2.64c0,.28,0,.5,0,.69A2.07,2.07,0,0,1,20.68,332.46Z" style="fill:#263238"></path><path d="M34.36,333.6a.89.89,0,0,1,0-.23c0-.19,0-.41-.09-.69-.06-.64-.16-1.52-.27-2.64-.23-2.29-.53-5.61-.86-9.71-.68-8.21-1.48-19.56-2.11-32.1s-1-23.93-1.11-32.16c-.08-4.12-.11-7.45-.11-9.76v-2.65l0-.69a.6.6,0,0,1,0-.23.72.72,0,0,1,0,.23c0,.19,0,.41,0,.69,0,.65.05,1.53.09,2.65.06,2.35.16,5.67.28,9.75.24,8.22.63,19.59,1.26,32.14s1.37,23.89,1.95,32.1c.3,4.07.53,7.38.7,9.73.08,1.11.13,2,.18,2.64q0,.42,0,.69A.87.87,0,0,1,34.36,333.6Z" style="fill:#263238"></path><path d="M633.88,9.84c2.55,54,20.5,122.53,47.87,169.11,10.36,17.63,30.06,53.29,30.06,53.29s-7,40.21-12,59.45c-10.79,41.5-13.62,79.44-7.52,126.94H742.6V9.84Z" style="fill:#060C22"></path><path d="M741.45,232.9c0,.14-6.69.26-14.93.26s-14.94-.12-14.94-.26,6.69-.26,14.94-.26S741.45,232.75,741.45,232.9Z" style="fill:#263238"></path><path d="M740.9,247.56c0,.14-7,.26-15.74.26s-15.75-.12-15.75-.26,7.05-.26,15.75-.26S740.9,247.42,740.9,247.56Z" style="fill:#263238"></path><path d="M694.62,128.62a.92.92,0,0,1,.08.28l.19.8c.16.76.39,1.8.68,3.12.57,2.72,1.43,6.64,2.55,11.46s2.54,10.56,4.22,16.89,3.69,13.25,5.94,20.47,4.58,14,6.78,20.21,4.32,11.69,6.15,16.29,3.35,8.32,4.43,10.87l1.22,3c.12.32.23.57.3.78a.84.84,0,0,1,.09.27,1.24,1.24,0,0,1-.13-.25c-.1-.2-.21-.45-.36-.75l-1.31-2.92c-1.13-2.53-2.71-6.22-4.58-10.81s-4-10.1-6.26-16.26-4.56-13-6.83-20.22-4.22-14.17-5.9-20.5-3-12.09-4.12-16.93-1.88-8.78-2.39-11.5c-.25-1.34-.44-2.39-.58-3.15-.06-.33-.1-.6-.14-.81A1.06,1.06,0,0,1,694.62,128.62Z" style="fill:#263238"></path><path d="M718.87,78a1.71,1.71,0,0,1,0,.4c0,.3,0,.69,0,1.19,0,1.08,0,2.61,0,4.58s0,4.41.08,7.23.1,6,.24,9.58c.19,7.1.66,15.54,1.25,24.91s1.5,19.65,2.56,30.43,2.29,21,3.44,30.36,2.32,17.69,3.35,24.72,1.87,12.71,2.47,16.63c.3,1.95.52,3.47.68,4.53.07.5.13.89.17,1.18a2.94,2.94,0,0,1,0,.4,2.09,2.09,0,0,1-.09-.4c-.06-.28-.13-.67-.22-1.17-.18-1-.44-2.57-.78-4.5-.66-3.92-1.58-9.59-2.63-16.62s-2.24-15.4-3.46-24.71-2.39-19.58-3.49-30.37-1.89-21.08-2.52-30.45-1-17.83-1.14-24.93c-.12-3.55-.14-6.76-.16-9.59s0-5.25,0-7.23.06-3.5.08-4.58c0-.5,0-.9,0-1.19A2,2,0,0,1,718.87,78Z" style="fill:#263238"></path><path d="M712.32,339.7s0-.08,0-.24,0-.42,0-.7c0-.66,0-1.56,0-2.7,0-2.34.1-5.73.29-9.92s.51-9.16,1-14.68,1.19-11.57,2.08-17.9,2-12.33,3-17.77,2.17-10.3,3.17-14.37,1.86-7.34,2.51-9.59l.75-2.59.21-.67a.73.73,0,0,1,.09-.23s0,.08,0,.24-.1.41-.16.68c-.16.64-.38,1.52-.65,2.62-.59,2.26-1.4,5.55-2.35,9.63s-2,8.95-3.06,14.38-2.07,11.43-3,17.75-1.59,12.36-2.12,17.87-.88,10.47-1.1,14.65-.39,7.57-.46,9.91c0,1.13-.08,2-.1,2.69l0,.7A.92.92,0,0,1,712.32,339.7Z" style="fill:#263238"></path><path d="M723.25,365.72a1.61,1.61,0,0,1,0-.31l-.05-.9c0-.83-.09-2-.15-3.46-.13-3-.24-7.35-.32-12.72-.15-10.75,0-25.6.93-42s2.46-31.17,3.82-41.83c.68-5.33,1.28-9.63,1.75-12.6l.54-3.42c.07-.37.12-.66.16-.89a.94.94,0,0,1,.07-.3,1.44,1.44,0,0,1,0,.31c0,.23-.06.53-.1.89-.11.82-.26,2-.45,3.44-.4,3-.95,7.28-1.58,12.62-1.27,10.67-2.74,25.44-3.67,41.81s-1.14,31.2-1.08,41.95c0,5.37.08,9.71.15,12.72,0,1.47,0,2.63,0,3.46,0,.37,0,.67,0,.9A1.92,1.92,0,0,1,723.25,365.72Z" style="fill:#263238"></path></g><g id="freepik--character-3--inject-15"><path d="M591,202.14s-6.32-11.52-5.6-12.91,3.61-9.25,3.07-10.18-1-.5-1.48.34-3.23,6.58-3.6,6.94.41-12,.41-12-1.69-.51-2.42,1.62a55.94,55.94,0,0,0-1.31,8L576,173.73a4.47,4.47,0,0,0-1.6,3.07c0,1.77,2.94,9.87,2.94,9.87L566.14,190a2.8,2.8,0,0,0,3,1.85c2.54-.07,7.5-1.76,8.19-1.31s-.06,3.5-1,3.56-7.84-.46-7.84-.46-1.39.89.53,2,5.65.56,7.14,2a53.63,53.63,0,0,0,6.67,4.55s1.58,3.22,2,3.16S591,202.14,591,202.14Z" style="fill:#ae7461"></path><path d="M558.1,236.49s2.51-2.19,15.67-3.1c8.7-.6,21-3.88,21.72-3.71s-12.64-27.54-12.64-27.54l6.11-3.95s19.85,26.24,20.2,28.69,4.29,8.75-4.91,13.49c-10.33,5.33-29.29,8.42-33.15,9.29s-8.52,7.84-8.52,7.84Z" style="fill:#ae7461"></path><path d="M525.17,313.43l-14.11,72.32S499.68,404,495.58,413.47s-8.21,34.72-8.21,34.72l8.47,1.75s16.93-27.73,20-35A104.53,104.53,0,0,1,521,404.23s13.09-19.23,16.68-25,19.75-41.27,21.8-45.11,2-11.84,2-11.84Z" style="fill:#263238"></path><path d="M498.35,453.29c.48-2.37-.4-8.55-.32-10.84a8.14,8.14,0,0,0-.83-3.89l-8.49,2.06c.08.64,0,5.48-1.1,7.17s-3,14.12-3.16,17.54.38,7.29,6.37,7.55,7.9-2.12,8.43-5S497.87,455.67,498.35,453.29Z" style="fill:#263238"></path><path d="M485.56,456.76c.09,3.73,1,9,5.43,8.95s6.65-4.13,7.63-7a24.53,24.53,0,0,1-.27-5.45c.48-2.37-.4-8.55-.32-10.84a8.14,8.14,0,0,0-.83-3.89l-8.49,2.06c.08.64,0,5.48-1.1,7.17C487,448.7,486.22,452.71,485.56,456.76Z" style="fill:none"></path><path d="M491,465.71c-4.42.05-5.34-5.22-5.43-8.95-.57,3.48-1,7-1.11,8.57-.18,3.42.38,7.29,6.37,7.55s7.9-2.12,8.43-5c.31-1.71-.23-5.69-.63-9.14C497.64,461.58,495.45,465.65,491,465.71Z" style="fill:#060C22"></path><path d="M573.71,296s17.94,18.7,20.63,47.34c1.38,14.75,4.57,36.44,6.11,41.43s6.46,15,7.23,24.76,3.3,31.14,3.3,31.14l-8.64,6.5s-10.57-23.66-13.9-32.9-3-17.2-6.87-24.44S568.69,353,568.69,353l-9.24-18.88,4.11-23.32Z" style="fill:#263238"></path><path d="M615.25,465.33c-.18-3.42-2.09-15.85-3.16-17.54s-.71-3.93-1.11-7.17l-8.49-2.06a8.07,8.07,0,0,0-.82,3.89c.08,2.29-.8,8.47-.32,10.84s-1.42,11.71-.9,14.59,2.44,5.26,8.43,5S615.43,468.75,615.25,465.33Z" style="fill:#263238"></path><path d="M601.35,453.29a24.7,24.7,0,0,1-.28,5.45c1,2.84,3.18,6.91,7.63,7s5.34-5.22,5.44-8.95c-.66-4.05-1.48-8.06-2-9-1.07-1.69-1.18-6.53-1.11-7.17l-8.49-2.06a8.07,8.07,0,0,0-.82,3.89C601.75,444.74,600.87,450.92,601.35,453.29Z" style="fill:none"></path><path d="M608.7,465.71c-4.45-.06-6.64-4.13-7.63-7-.39,3.45-.93,7.43-.62,9.14.52,2.88,2.44,5.26,8.43,5s6.55-4.13,6.37-7.55c-.08-1.58-.54-5.09-1.11-8.57C614,460.49,613.13,465.76,608.7,465.71Z" style="fill:#060C22"></path><path d="M499.49,243.44c-1.5-.14-2.37-2-1.87-3.45a4.72,4.72,0,0,1,3.4-2.7,32,32,0,0,1,4.49-.49,16.57,16.57,0,0,0,11.34-6.49,29.72,29.72,0,0,0,2.55-4.37c3.25-8.27,7.81-20.09,9.18-24.76,3.54-12.05,8.61-25.1,26-21.33,0,0,11.38,3.88,14.66,12.9,2.89,7.94,2.87,36.41-9.8,42.06l-.62,5.19-.73,1.2c-.71,1.58.44,2.24-.73,3.47A46.26,46.26,0,0,1,542.19,255c-11.37,5.06-24.38,6.84-36.46,3.86a19,19,0,0,1-7.19-3.11,8.68,8.68,0,0,1-3.61-6.69C495,246.42,496.89,243.77,499.49,243.44Z" style="fill:#263238"></path><path d="M556.28,184.77l-.95-1.21-12.57,3.09a3.36,3.36,0,0,0-3.6,2.76l-5.44,38.74a11,11,0,0,0,1.09,7.3l1.36,2.44A8.85,8.85,0,0,0,551,239.06a4.11,4.11,0,0,0,.56-.94,6.15,6.15,0,0,0,.3-.84c.8-3.06,1.21-5.76,1.21-5.76.7-3.39,1-4.79,1-4.75s7.4.2,10.71-8.86c1.64-4.51,2.37-10.93,3-17.26C568.56,191.89,563.28,185.76,556.28,184.77Z" style="fill:#ae7461"></path><path d="M551.37,204.6a1.23,1.23,0,0,1-1.4,1,1.18,1.18,0,0,1-1-1.32,1.22,1.22,0,0,1,1.39-1A1.17,1.17,0,0,1,551.37,204.6Z" style="fill:#263238"></path><path d="M563.15,206.74a1.22,1.22,0,0,1-1.39,1,1.18,1.18,0,0,1-1-1.33,1.23,1.23,0,0,1,1.39-1A1.17,1.17,0,0,1,563.15,206.74Z" style="fill:#263238"></path><path d="M566.1,203c-.18.13-1-.72-2.25-1s-2.36.22-2.47,0,.15-.34.62-.56a3.36,3.36,0,0,1,2-.21,3.21,3.21,0,0,1,1.75,1C566.11,202.6,566.18,202.91,566.1,203Z" style="fill:#263238"></path><path d="M552.89,201.21c-.19.11-.88-.82-2.14-1.2s-2.37,0-2.46-.22.18-.32.67-.49a3.38,3.38,0,0,1,2,0,3.24,3.24,0,0,1,1.65,1.14C552.93,200.84,553,201.16,552.89,201.21Z" style="fill:#263238"></path><path d="M556.07,211.32a8.8,8.8,0,0,1,2.17,0c.34,0,.66,0,.76-.19a1.63,1.63,0,0,0,0-1c-.15-.86-.31-1.75-.48-2.7a42.71,42.71,0,0,1-.91-7,45.5,45.5,0,0,1,1.47,6.9c.15,1,.3,1.85.44,2.71a2,2,0,0,1-.08,1.33.82.82,0,0,1-.64.37,2,2,0,0,1-.57,0A8.68,8.68,0,0,1,556.07,211.32Z" style="fill:#263238"></path><path d="M554,226.77A24.22,24.22,0,0,1,542.12,221s1.88,7.08,11.41,8Z" style="fill:#6f4439"></path><path d="M554.92,214.32a2.37,2.37,0,0,0-1.92-1.27,2.17,2.17,0,0,0-1.61.51,1.37,1.37,0,0,0-.41,1.51,1.59,1.59,0,0,0,1.61.76,5,5,0,0,0,1.84-.66,1.8,1.8,0,0,0,.45-.31.46.46,0,0,0,.09-.48" style="fill:#6f4439"></path><path d="M552.1,211.47c.21,0-.06,1.43.95,2.66s2.52,1.37,2.5,1.56-.39.21-1,.11a3.56,3.56,0,0,1-2.1-1.23,3.09,3.09,0,0,1-.71-2.21C551.78,211.76,552,211.45,552.1,211.47Z" style="fill:#263238"></path><path d="M554.33,198.1c-.23.31-1.44-.24-3-.51s-2.85-.23-3-.59c0-.18.26-.43.85-.62a4.94,4.94,0,0,1,2.35-.1,5,5,0,0,1,2.15.94C554.24,197.6,554.43,198,554.33,198.1Z" style="fill:#263238"></path><path d="M565.72,198.07c-.28.25-1.11-.22-2.18-.45s-2-.19-2.16-.53c-.06-.17.14-.43.59-.64a3.24,3.24,0,0,1,3.5.8C565.78,197.62,565.85,198,565.72,198.07Z" style="fill:#263238"></path><path d="M537,206s6.36,3,12.49-12.86c2.09-5.44,8-9.24,8-9.24l-2-.94s-13.66,1.82-13.91,1.95-4.28,6.32-4.28,6.32Z" style="fill:#263238"></path><path d="M538.76,205.6c.13-.7-.35-2.5-1-2.74-1.78-.64-5.12-1.14-6.06,3.52-1.28,6.37,5.38,6.34,5.43,6.16S538.3,208,538.76,205.6Z" style="fill:#ae7461"></path><path d="M535.65,209.74s-.13,0-.33.1a1.14,1.14,0,0,1-.84-.15,2.81,2.81,0,0,1-.77-2.72,3.75,3.75,0,0,1,.63-1.53,1.32,1.32,0,0,1,1-.68.57.57,0,0,1,.59.44c0,.19,0,.31,0,.33s.16-.08.16-.35a.69.69,0,0,0-.17-.45.82.82,0,0,0-.58-.29,1.59,1.59,0,0,0-1.35.76,3.84,3.84,0,0,0-.75,1.69,3,3,0,0,0,1.07,3.08,1.17,1.17,0,0,0,1,0C535.6,209.89,535.67,209.75,535.65,209.74Z" style="fill:#6f4439"></path><path d="M528.22,228.85a15.23,15.23,0,0,0,.46-2.23,35.08,35.08,0,0,0,.25-6.18c0-1.31-.09-2.74-.15-4.28a40.84,40.84,0,0,1,.12-4.89,19.43,19.43,0,0,1,1.15-5.26,12.83,12.83,0,0,1,3.15-4.78,29.57,29.57,0,0,1,4.63-3.49c1.58-1,3.1-2,4.47-3.08a51,51,0,0,0,10.67-11c.42-.6.73-1.07.94-1.4.1-.15.18-.27.23-.36l.08-.13-.09.12-.25.35c-.22.32-.54.79-1,1.38a53.33,53.33,0,0,1-3.92,4.78,51.1,51.1,0,0,1-6.79,6.15c-1.37,1.05-2.88,2-4.47,3.06a29.71,29.71,0,0,0-4.65,3.51,13.22,13.22,0,0,0-1.9,2.28,14.1,14.1,0,0,0-1.3,2.57,19.77,19.77,0,0,0-1.15,5.31,41,41,0,0,0-.1,4.91c.07,1.53.12,3,.18,4.27a36.93,36.93,0,0,1-.2,6.17c-.09.73-.2,1.29-.28,1.66l-.09.43C528.23,228.8,528.22,228.85,528.22,228.85Z" style="fill:#455a64"></path><path d="M526.07,229.16a17.14,17.14,0,0,0,.46-2.23,35.21,35.21,0,0,0,.25-6.19c0-1.3-.1-2.73-.15-4.27a40.76,40.76,0,0,1,.11-4.89,20.22,20.22,0,0,1,1.15-5.26,13.8,13.8,0,0,1,1.29-2.54,12.78,12.78,0,0,1,1.87-2.24,30.28,30.28,0,0,1,4.63-3.5c1.58-1,3.1-2,4.47-3.07a49.75,49.75,0,0,0,6.78-6.2,48.09,48.09,0,0,0,3.88-4.82c.42-.6.74-1.07,1-1.4.1-.15.17-.28.23-.37l.08-.13s0,0-.09.12l-.25.36c-.22.32-.54.79-1,1.38a53.33,53.33,0,0,1-3.92,4.78,51.1,51.1,0,0,1-6.79,6.15c-1.37,1-2.88,2-4.47,3.06a29.71,29.71,0,0,0-4.65,3.51,12.85,12.85,0,0,0-1.9,2.28,14.1,14.1,0,0,0-1.3,2.57,19.79,19.79,0,0,0-1.15,5.3,41.16,41.16,0,0,0-.1,4.92c.06,1.53.12,3,.18,4.27a36.93,36.93,0,0,1-.2,6.17c-.09.73-.2,1.28-.28,1.66,0,.18-.07.32-.09.43S526.06,229.15,526.07,229.16Z" style="fill:#455a64"></path><path d="M534.26,167.27c-.41.72-.93,19.8-.93,19.8s15,5.94,15.85,6,21.87-1.17,21.87-1.17-3.13-8.12-2.21-14.8c.67-4.8.13-7,.13-7S535.38,165.31,534.26,167.27Z" style="fill:#263238"></path><path d="M526.8,187.43c.28.52,10.31,6.25,21.2,7.87,15.86,2.35,23.44.25,26.69-1.36a2.17,2.17,0,0,0-.48-4.08,2.38,2.38,0,0,0-.39,0,58.25,58.25,0,0,1-14.92,1.85c-14.1.15-27-6.14-29.54-7S525.7,185.4,526.8,187.43Z" style="fill:#263238"></path><path d="M526.8,187.43a2.73,2.73,0,0,1-.43-1,1.88,1.88,0,0,1,.16-1.32,1.76,1.76,0,0,1,1.63-.76,6.61,6.61,0,0,1,2.2.58l2.48,1c1.79.7,3.83,1.45,6.13,2.19a67.12,67.12,0,0,0,16.54,3.24,65.92,65.92,0,0,0,10-.27,50.51,50.51,0,0,0,5.21-.79c.87-.18,1.73-.41,2.63-.63a2.26,2.26,0,0,1,2.6,1.16,2.56,2.56,0,0,1-.41,2.85,3.68,3.68,0,0,1-1.23.76c-.43.18-.85.36-1.28.5a26.71,26.71,0,0,1-5.2,1.23,53.47,53.47,0,0,1-10,.36A71.15,71.15,0,0,1,541,193.9a63.29,63.29,0,0,1-10.62-4.27c-2.41-1.22-3.64-2.12-3.57-2.2s.08.06.22.16.38.25.69.42c.61.36,1.53.86,2.75,1.44a67.74,67.74,0,0,0,10.63,4.1A73.12,73.12,0,0,0,557.77,196a54.26,54.26,0,0,0,10-.39,26.22,26.22,0,0,0,5.1-1.2c.42-.14.83-.32,1.23-.49a3.12,3.12,0,0,0,1.07-.65,2,2,0,0,0,.33-2.26,1.77,1.77,0,0,0-2-.89c-.87.22-1.75.45-2.64.64a51,51,0,0,1-5.26.79,60.49,60.49,0,0,1-26.67-3.13c-2.29-.76-4.34-1.54-6.12-2.27l-2.47-1a6.33,6.33,0,0,0-2.11-.6,1.57,1.57,0,0,0-1.49.63,1.76,1.76,0,0,0-.18,1.22A7.62,7.62,0,0,0,526.8,187.43Z" style="fill:#455a64"></path><path d="M564,283.8l-2.31-4.41a96.79,96.79,0,0,1,4.08-15.84c2.72-7.09-5.25-27.47-6.14-27.73-.19,0-3.58-.06-3.58-.06l-29.19-8.66S508.51,254.33,511.35,267s12.39,26.86,12.39,26.86l3.54,3.7-3,21.14,34.45,16.93h1.46l20.57-29.1C576.51,293.73,564,283.8,564,283.8Z" style="fill:#060C22"></path><polygon points="530.5 228.17 543.42 256.47 556.34 235.64 532.18 228.44 530.5 228.17" style="fill:#ae7461"></polygon><path d="M527.7,227.35s-5.78-4.66-11.7-1.17c-10.46,6.15-13.11,45.36-11.56,50.78s34.36,34,35.4,34,7.39-4.48,7.39-4.48l-26.84-37.31Z" style="fill:#ae7461"></path><path d="M555.13,304.54a4.92,4.92,0,0,0-2.92-.32,10.51,10.51,0,0,0-5.67,2.79l-11.12,4.34c1.34.71,4.9,4.21,6.37,4.6a6.6,6.6,0,0,0,4.45-.22c2.65-1.24,3.76-4.57,6.34-6,.73-.39,1.56-.61,2.3-1a2.82,2.82,0,0,0,1.61-1.82A2.39,2.39,0,0,0,555.13,304.54Z" style="fill:#ae7461"></path><path d="M555.13,304.54a1.2,1.2,0,0,1,.47.24,2.56,2.56,0,0,1,.91,1.19,2.1,2.1,0,0,1-.58,2.25,7.93,7.93,0,0,1-2.75,1.48,7.57,7.57,0,0,0-2.79,2.28,22.15,22.15,0,0,1-2.88,3.23,5.61,5.61,0,0,1-2.15,1.09,6.71,6.71,0,0,1-2.49.12,6.28,6.28,0,0,1-1.26-.26,5.53,5.53,0,0,1-1.18-.63c-.72-.49-1.39-1-2.07-1.58a33,33,0,0,0-3.06-2.38l-.45-.28.48-.18,11.14-4.29-.07,0a10.39,10.39,0,0,1,6.25-2.8,4.59,4.59,0,0,1,1.89.19,1.61,1.61,0,0,1,.59.29,5.21,5.21,0,0,0-2.46-.26,10.47,10.47,0,0,0-6,2.87l0,0h0l-11.1,4.4,0-.47a32,32,0,0,1,3.14,2.42c.67.55,1.34,1.09,2,1.56a4.87,4.87,0,0,0,1,.57,7.6,7.6,0,0,0,1.17.25,5.52,5.52,0,0,0,4.28-1.08,23.12,23.12,0,0,0,2.85-3.14,7.73,7.73,0,0,1,3-2.34,8.14,8.14,0,0,0,2.69-1.34,1.91,1.91,0,0,0,.59-2,2.66,2.66,0,0,0-.79-1.17A4.85,4.85,0,0,1,555.13,304.54Z" style="fill:#6f4439"></path><path d="M542,311V470.22c0,3.22,5,3.22,5,0V311c0-3.22-5-3.22-5,0Z" style="fill:#455a64"></path><path d="M542,311s0-.07,0-.22a2,2,0,0,1,.11-.63,2.35,2.35,0,0,1,1.88-1.57,2.89,2.89,0,0,1,1.85.28,2.29,2.29,0,0,1,1.2,1.86c.06,1.64,0,3.51,0,5.62,0,8.47.05,20.69.09,35.79,0,30.24,0,72,.07,118.08a2.58,2.58,0,0,1-1,2.1,3,3,0,0,1-2.23.55,2.63,2.63,0,0,1-1.93-1.23,4.08,4.08,0,0,1-.38-2.21v-8.49q0-8.42,0-16.58c0-10.87,0-21.36,0-31.35,0-20,0-38,.06-53.09s.06-27.32.08-35.79c0-4.21,0-7.49,0-9.73,0-1.1,0-1.94,0-2.53s0-.86,0-.86,0,.29,0,.86,0,1.43,0,2.53c0,2.24,0,5.52,0,9.73,0,8.47.05,20.69.09,35.79s0,33.11,0,53.09c0,10,0,20.48,0,31.35v25.07a3.58,3.58,0,0,0,.31,1.94,2.12,2.12,0,0,0,1.56,1,2.56,2.56,0,0,0,1.83-.45,2,2,0,0,0,.78-1.69c0-46.1.06-87.84.08-118.08,0-15.1.06-27.32.08-35.79,0-2.11,0-4,0-5.6a2.17,2.17,0,0,0-1.12-1.77,2.84,2.84,0,0,0-1.77-.29,2.3,2.3,0,0,0-1.84,1.48,2.12,2.12,0,0,0-.13.63A1.76,1.76,0,0,1,542,311Z" style="fill:#263238"></path><path d="M549.06,305a10.41,10.41,0,0,0-2.65-4.91c-2.21-2.31-6.42-2.53-6.42,0,0,0-3.1-1.28-3.83.93-.26.77.46,2,.46,2s-2.42-.84-2.53,2.31c0,0-3.87-.13-2.25,3,1.3,2.51,3.41,4.27,5.31,3.11s.57-2.14.57-2.14,2.69,3.93,4.79,3.4,1.69-2,1.69-2c.63.35,1.41-.09,2.17-.68,0,0,.16,2.37,2,1.53S549.06,305,549.06,305Z" style="fill:#ae7461"></path><path d="M549.06,305a2.68,2.68,0,0,1,.18.68,16.39,16.39,0,0,1,.29,2,7.07,7.07,0,0,1-.29,3.19,1.34,1.34,0,0,1-.26.44,1.14,1.14,0,0,1-.4.35,1.87,1.87,0,0,1-1.08.26,1.34,1.34,0,0,1-1-.69,2.9,2.9,0,0,1-.35-1.16l.31.14a5.74,5.74,0,0,1-1,.65,1.52,1.52,0,0,1-1.37.06l.3-.24a1.77,1.77,0,0,1-1,2,2.89,2.89,0,0,1-1.12.35,2.34,2.34,0,0,1-1.2-.22,10,10,0,0,1-3.56-3.3l-1.19-1.6,1.55,1.26a1.34,1.34,0,0,1,.54,1.08,1.53,1.53,0,0,1-.57,1.06,3.8,3.8,0,0,1-1,.62,2.75,2.75,0,0,1-1.17.19,3.71,3.71,0,0,1-2.1-1,7.85,7.85,0,0,1-1.5-1.75,10,10,0,0,1-.73-1.38,2.2,2.2,0,0,1-.06-1.64,2,2,0,0,1,1.26-1,5.19,5.19,0,0,1,1.51-.21l-.26.25a3.19,3.19,0,0,1,.71-2.11,2.1,2.1,0,0,1,2.15-.43l-.29.35a4,4,0,0,1-.55-1.75,2,2,0,0,1,.94-1.58,2.81,2.81,0,0,1,1.7-.32,6.22,6.22,0,0,1,1.57.38l-.3.2a1.9,1.9,0,0,1,.69-1.48,2.73,2.73,0,0,1,1.44-.51,5.63,5.63,0,0,1,2.66.5,7.3,7.3,0,0,1,3.15,2.94,10.54,10.54,0,0,1,1.16,2.5,3.2,3.2,0,0,1,.19,1s-.1-.32-.32-.91a11.08,11.08,0,0,0-1.24-2.42,7.15,7.15,0,0,0-3.08-2.74,5.38,5.38,0,0,0-2.48-.44,2.38,2.38,0,0,0-1.22.45,1.47,1.47,0,0,0-.52,1.15v.31l-.3-.11a5.6,5.6,0,0,0-1.44-.33,2.26,2.26,0,0,0-1.41.27,1.48,1.48,0,0,0-.71,1.17,3.71,3.71,0,0,0,.49,1.52l.28.52-.57-.17a1.62,1.62,0,0,0-1.63.32,2.78,2.78,0,0,0-.56,1.77v.25h-.26c-.85,0-2,.2-2.28.94s.26,1.71.76,2.53c.78,1.19,1.88,2.35,3.2,2.48a2.37,2.37,0,0,0,1.74-.68,1,1,0,0,0,.41-.7.85.85,0,0,0-.34-.66l.35-.34a9.75,9.75,0,0,0,3.33,3.15,2.06,2.06,0,0,0,1.93-.09,1.35,1.35,0,0,0,.82-1.46l-.12-.48.42.24a1.11,1.11,0,0,0,1-.06,5.27,5.27,0,0,0,1-.59l.28-.21,0,.35c0,.7.37,1.46,1,1.53a1.48,1.48,0,0,0,.87-.19,1,1,0,0,0,.32-.28,1.2,1.2,0,0,0,.22-.36,7.17,7.17,0,0,0,.36-3c0-.87-.13-1.54-.19-2A3.68,3.68,0,0,1,549.06,305Z" style="fill:#6f4439"></path><path d="M537.25,304.14a22.38,22.38,0,0,1,6.88,6.59,45.15,45.15,0,0,1-3.45-3.29A44.69,44.69,0,0,1,537.25,304.14Z" style="fill:#6f4439"></path><path d="M540.57,301.55a11.19,11.19,0,0,1,3.89,3.66,9.08,9.08,0,0,1,1.92,5,25.59,25.59,0,0,0-2.35-4.68C542.36,303.14,540.46,301.68,540.57,301.55Z" style="fill:#6f4439"></path><path d="M534,306a11.3,11.3,0,0,1,4.29,4A11,11,0,0,1,536,308C534.84,307,533.87,306.07,534,306Z" style="fill:#6f4439"></path></g><g id="freepik--character-2--inject-15"><path d="M345.64,309.93l-15.18,77.74s-12.22,19.59-16.63,29.79S305,454.77,305,454.77l9.1,1.88s18.19-29.79,21.5-37.58a112.74,112.74,0,0,1,5.51-11.54s14.07-20.67,17.93-26.84,21.23-44.36,23.43-48.49,2.21-12.72,2.21-12.72Z" style="fill:#455a64"></path><path d="M316.81,460.26c.51-2.55-.43-9.2-.35-11.65a8.72,8.72,0,0,0-.88-4.18l-9.13,2.21c.08.69,0,5.89-1.19,7.71s-3.2,15.17-3.39,18.85.41,7.83,6.85,8.11,8.49-2.28,9-5.37S316.29,462.82,316.81,460.26Z" style="fill:#455a64"></path><path d="M317.77,475.94c.34-1.84-.25-6.12-.67-9.82-1.06,3.05-3.41,7.42-8.2,7.48s-5.74-5.6-5.84-9.61c-.62,3.74-1.1,7.51-1.19,9.21-.2,3.67.41,7.83,6.85,8.11S317.21,479,317.77,475.94Z" style="fill:#263238"></path><path d="M397.8,291.15S417.09,311.25,420,342c1.49,15.86,4.91,39.16,6.57,44.53s6.94,16.14,7.76,26.61,3.56,33.47,3.56,33.47l-9.3,7s-11.35-25.42-14.93-35.35-3.25-18.49-7.39-26.27-13.84-39.5-13.84-39.5l-9.93-20.3,4.41-25.06Z" style="fill:#455a64"></path><path d="M442.45,473.2c-.19-3.68-2.25-17-3.4-18.85s-.75-4.22-1.18-7.71l-9.13-2.21a8.58,8.58,0,0,0-.88,4.18c.08,2.45-.86,9.1-.35,11.65s-1.53,12.58-1,15.68,2.62,5.65,9.05,5.37S442.64,476.87,442.45,473.2Z" style="fill:#455a64"></path><path d="M435.6,481.31c6.44-.28,7-4.44,6.85-8.11-.09-1.7-.58-5.47-1.19-9.21-.1,4-1.09,9.67-5.84,9.61s-7.14-4.43-8.2-7.48c-.43,3.7-1,8-.67,9.82C427.11,479,429.17,481.59,435.6,481.31Z" style="fill:#263238"></path><path d="M381,227.24s2.7-2.35,16.84-3.33c9.35-.65,22.59-4.17,23.34-4s-13.74-27.12-13.74-27.12l6.4-3.39s21.66,24.86,22,27.49,4.62,9.4-5.27,14.5c-11.11,5.73-31.49,9.05-35.63,10s-9.16,8.42-9.16,8.42Z" style="fill:#ffbf9d"></path><path d="M416.43,193s-6.79-12.38-6-13.87,3.88-9.95,3.3-10.94-1-.54-1.58.37-3.48,7.06-3.88,7.45.44-12.93.44-12.93-1.81-.54-2.6,1.74-1.4,8.64-1.4,8.64l-4.46-11a4.82,4.82,0,0,0-1.71,3.3c0,1.9,3.15,10.61,3.15,10.61l-12,3.53a3,3,0,0,0,3.25,2c2.73-.07,8.06-1.89,8.81-1.4s-.06,3.76-1.09,3.82-8.42-.49-8.42-.49-1.49.95.57,2.16,6.07.6,7.67,2.13a57.53,57.53,0,0,0,7.17,4.88s1.7,3.47,2.13,3.4S416.43,193,416.43,193Z" style="fill:#ffbf9d"></path><path d="M387.4,278.09l-2.49-4.74a104,104,0,0,1,4.4-17c2.92-7.63-5.65-29.53-6.61-29.81-.2,0-3.85-.06-3.85-.06l-31.37-9.31s-19.76,29.27-16.7,42.87S344.1,288.9,344.1,288.9l3.8,4-3.24,22.72,37,18.2h1.57l22.1-31.28C400.81,288.76,387.4,278.09,387.4,278.09Z" style="fill:#263238"></path><polygon points="351.36 218.3 365.25 248.72 379.14 226.33 353.17 218.59 351.36 218.3" style="fill:#ffbf9d"></polygon><path d="M391.13,186.22s1.86,15.82.65,26.65l-.41,3.61S381.3,222.64,373.7,222l-4.06-16.46Z" style="fill:#263238"></path><path d="M349.85,189.76c2.8-7.18,4.72-15.73,11.6-19.67,5.1-2.93,10.47-3.17,16.26-2.08a20.78,20.78,0,0,1,8.18,4.1c3.14,2.44,4,6.58,5.15,10.38,2.27,7.64.44,17.26-2.19,19.62l-32.17,11.44c-5.51-4-9.07-5.75-8.87-13.84A29.54,29.54,0,0,1,349.85,189.76Z" style="fill:#263238"></path><path d="M360.91,176l19.61-2.82c6.18,0,9.46,8,9.2,14.14-.29,6.87-.91,15.24-2.26,20.24-2.7,10.07-10.68,10.54-10.68,10.54s0,.15-.42,3.19l-.88,6.23c-.21,2-.66,2.61-2.1,4-3.29,3.19-4.76,6.11-10.4,3-3.27-1.78-7.18-9.62-8.71-11.41l3-43.84A3.62,3.62,0,0,1,360.91,176Z" style="fill:#ffbf9d"></path><path d="M385.48,196.52a1.32,1.32,0,0,1-1.41,1.19,1.26,1.26,0,0,1-1.22-1.33,1.32,1.32,0,0,1,1.4-1.19A1.26,1.26,0,0,1,385.48,196.52Z" style="fill:#263238"></path><path d="M387.58,193.32c-.18.15-1.09-.69-2.51-.84s-2.52.46-2.65.27.13-.38.61-.66a3.6,3.6,0,0,1,2.15-.42,3.55,3.55,0,0,1,2,.87C387.56,192.92,387.67,193.25,387.58,193.32Z" style="fill:#263238"></path><path d="M372.49,194.94a1.33,1.33,0,0,1-1.41,1.19,1.26,1.26,0,0,1-1.23-1.33,1.33,1.33,0,0,1,1.41-1.19A1.28,1.28,0,0,1,372.49,194.94Z" style="fill:#263238"></path><path d="M373.75,191.47c-.19.16-1.1-.68-2.52-.83s-2.52.46-2.65.27.13-.38.61-.66a3.6,3.6,0,0,1,2.15-.42,3.48,3.48,0,0,1,2,.87C373.72,191.08,373.83,191.41,373.75,191.47Z" style="fill:#263238"></path><path d="M377.89,201.37a9.45,9.45,0,0,1,2.34-.17c.36,0,.71,0,.8-.27a1.89,1.89,0,0,0-.13-1.1c-.25-.91-.5-1.86-.78-2.86-1.06-4.06-1.8-7.39-1.63-7.43a48.48,48.48,0,0,1,2.23,7.29c.25,1,.5,1.95.73,2.87a2.11,2.11,0,0,1,0,1.43.93.93,0,0,1-.65.47,3.36,3.36,0,0,1-.62,0A9.46,9.46,0,0,1,377.89,201.37Z" style="fill:#263238"></path><path d="M376.82,218.15a26.17,26.17,0,0,1-13.32-5.1s2.63,7.52,13,7.64Z" style="fill:#ff9a6c"></path><path d="M372.88,203.83a2.08,2.08,0,0,1,1.8-.75,2.7,2.7,0,0,1,2.3,1.46,1.67,1.67,0,0,1,0,1.21c-.11.19,0,.1-.21.22a4.52,4.52,0,0,1-2,1,2,2,0,0,1-2-1A2.09,2.09,0,0,1,372.88,203.83Z" style="fill:#ff9a6c"></path><path d="M373.37,201.94c.23,0,.08,1.54,1.29,2.76s2.85,1.21,2.84,1.43-.39.26-1.08.21a3.86,3.86,0,0,1-2.39-1.1,3.38,3.38,0,0,1-1-2.31C373.06,202.28,373.27,201.92,373.37,201.94Z" style="fill:#263238"></path><path d="M375,186.41c-.15.38-1.56.13-3.24.25s-3,.51-3.24.16c-.09-.17.16-.52.72-.87a5.42,5.42,0,0,1,2.43-.73,5.35,5.35,0,0,1,2.51.42C374.8,185.91,375.09,186.23,375,186.41Z" style="fill:#263238"></path><path d="M388,189.52c-.36.23-1.32-.4-2.57-.79s-2.39-.48-2.54-.88c-.06-.19.2-.45.75-.6a4.26,4.26,0,0,1,4.12,1.34C388.13,189,388.18,189.4,388,189.52Z" style="fill:#263238"></path><path d="M380.74,172.14c0,.07,0,.15,0,.22h0A2,2,0,0,0,380.74,172.14Z" style="fill:#263238"></path><path d="M360.37,220c.1-2.71,1.56-5.23,1.64-7.94.08-2.88-1.4-5.56-1.75-8.42-.57-4.57,1.76-9,3-13.45a10.92,10.92,0,0,0,7.17-2.86,30.52,30.52,0,0,0,5.68-7.58,14,14,0,0,1-3.92,7.51,3.75,3.75,0,0,0,3.32-.57,8.46,8.46,0,0,0,2.28-2.62,23,23,0,0,0,3-7.88,29.78,29.78,0,0,1-3.06,11.7,5.14,5.14,0,0,1,2.2.4,2.42,2.42,0,0,0,2.17-.14,2.68,2.68,0,0,0,.77-1.27,30.74,30.74,0,0,0,1.85-10.31,32.74,32.74,0,0,1,1.5,6.08,11.28,11.28,0,0,1-.85,6.13.91.91,0,0,0,1.26.17,2.13,2.13,0,0,0,.74-1.19,16,16,0,0,0,.42-5.21,26.48,26.48,0,0,1,1.06,6.17c.27,2.07.87,4.25,2.44,5.64a27.64,27.64,0,0,0,.88-7.85,23.8,23.8,0,0,0-1.39-6.53,18.58,18.58,0,0,0-3.29-6.35c-2.62-3.06-4-2.11-6.1-1.39l-.24.07s0-.1,0-.15l0-.42a29.07,29.07,0,0,0-15.23-1.49c-3.78.65-5.24,8.38-5.58,4.56-.21-2.32-3.4-.7-3.45-.64-5.37,7.06-11.66,18.59-14.66,37.81h0Z" style="fill:#263238"></path><path d="M354.44,156.17c-.43.76-1,20.71-1,20.71s15.68,6.22,16.59,6.29,22.87-1.23,22.87-1.23-3.28-8.49-2.31-15.48c.7-5,.13-7.31.13-7.31S355.61,154.12,354.44,156.17Z" style="fill:#263238"></path><path d="M346.63,177.26c.29.54,10.78,6.53,22.18,8.23,16.59,2.46,24.52.27,27.92-1.42,1.92-1,1.62-3.95-.5-4.27a2.73,2.73,0,0,0-.41,0,61,61,0,0,1-15.62,1.93c-14.74.16-28.23-6.42-30.9-7.31S345.48,175.14,346.63,177.26Z" style="fill:#263238"></path><path d="M346.63,177.26a2.75,2.75,0,0,1-.44-1,1.94,1.94,0,0,1,.16-1.38,1.83,1.83,0,0,1,1.7-.79,7.16,7.16,0,0,1,2.3.61l2.6,1c1.86.73,4,1.52,6.41,2.28a69.63,69.63,0,0,0,17.3,3.4,70.93,70.93,0,0,0,10.43-.28,52.28,52.28,0,0,0,5.44-.83c.92-.19,1.82-.43,2.75-.66A2.37,2.37,0,0,1,398,180.8a2.67,2.67,0,0,1-.43,3,3.75,3.75,0,0,1-1.29.79c-.44.19-.88.38-1.33.53a28.79,28.79,0,0,1-5.44,1.28,56.76,56.76,0,0,1-10.5.38A74.52,74.52,0,0,1,361.47,184a66.09,66.09,0,0,1-11.11-4.46c-2.52-1.28-3.8-2.22-3.73-2.3s.08.06.23.17.4.26.72.44c.64.37,1.6.9,2.87,1.51a71.69,71.69,0,0,0,11.13,4.29,76.3,76.3,0,0,0,17.45,2.6,55.82,55.82,0,0,0,10.41-.41,27.14,27.14,0,0,0,5.33-1.26c.44-.15.87-.33,1.3-.51a3.36,3.36,0,0,0,1.12-.68,2.15,2.15,0,0,0,.34-2.38,1.84,1.84,0,0,0-2.13-.93c-.91.22-1.84.47-2.76.66a53.8,53.8,0,0,1-5.5.83,63.22,63.22,0,0,1-27.9-3.28c-2.4-.79-4.54-1.61-6.4-2.36l-2.59-1.07a6.77,6.77,0,0,0-2.21-.63,1.65,1.65,0,0,0-1.56.66,1.83,1.83,0,0,0-.19,1.28A7.37,7.37,0,0,0,346.63,177.26Z" style="fill:#455a64"></path><path d="M348.36,217.41s-6.22-5-12.59-1.25c-11.23,6.61-14.08,48.75-12.41,54.58s36.93,36.58,38,36.58,8-4.81,8-4.81l-28.86-40.1Z" style="fill:#ffbf9d"></path><path d="M377.84,300.38a5.25,5.25,0,0,0-3.14-.34,11.22,11.22,0,0,0-6.09,3l-11.95,4.67c1.43.77,5.26,4.53,6.83,4.95a7.09,7.09,0,0,0,4.79-.24c2.85-1.33,4-4.91,6.81-6.4.79-.42,1.68-.65,2.48-1.06a3,3,0,0,0,1.72-1.95A2.56,2.56,0,0,0,377.84,300.38Z" style="fill:#ffbf9d"></path><path d="M364,307.32V478.46c0,3.21,5,3.22,5,0V307.32c0-3.21-5-3.22-5,0Z" style="fill:#455a64"></path><path d="M364,307.32s0-.07,0-.23a2.17,2.17,0,0,1,.13-.68,2.32,2.32,0,0,1,.64-.94,2.69,2.69,0,0,1,1.46-.59,2.75,2.75,0,0,1,1.93.52,2.51,2.51,0,0,1,.91,2.19c0,1.74,0,3.75,0,6,0,9.07,0,22.17.08,38.35,0,32.38.05,77.1.07,126.5a2.56,2.56,0,0,1-1.11,2.19,3,3,0,0,1-2.42.38,2.69,2.69,0,0,1-1.12-.56,2.5,2.5,0,0,1-.7-1.06,8.77,8.77,0,0,1-.17-2.36c0-3.05,0-6.08,0-9.09V450.18c0-11.64,0-22.88,0-33.58,0-21.41,0-40.68.06-56.88s.06-29.27.08-38.34c0-4.51,0-8,0-10.42,0-1.18,0-2.09,0-2.71s0-.93,0-.93,0,.32,0,.93,0,1.53,0,2.71c0,2.4,0,5.91.05,10.42,0,9.07,0,22.16.08,38.34s0,35.47.05,56.88c0,10.7,0,21.94,0,33.58V477a8.59,8.59,0,0,0,.14,2.19,2,2,0,0,0,1.46,1.29,2.47,2.47,0,0,0,2-.31,2,2,0,0,0,.88-1.76c0-49.4.06-94.12.08-126.5,0-16.18.06-29.28.08-38.35,0-2.26,0-4.27,0-6a2.39,2.39,0,0,0-.84-2.09,2.7,2.7,0,0,0-1.84-.52,2.64,2.64,0,0,0-1.42.55,2.36,2.36,0,0,0-.64.9,2.18,2.18,0,0,0-.15.66A1.73,1.73,0,0,1,364,307.32Z" style="fill:#263238"></path><path d="M371.31,300.92a11.13,11.13,0,0,0-2.85-5.28c-2.37-2.49-6.9-2.71-6.9,0,0,0-3.33-1.37-4.12,1a3.56,3.56,0,0,0,.5,2.17s-2.6-.9-2.72,2.49c0,0-4.16-.14-2.42,3.22,1.4,2.7,3.67,4.59,5.71,3.34s.61-2.3.61-2.3,2.89,4.23,5.16,3.66,1.81-2.15,1.81-2.15c.67.37,1.51-.1,2.33-.73,0,0,.17,2.54,2.2,1.63S371.31,300.92,371.31,300.92Z" style="fill:#ffbf9d"></path><path d="M371.31,300.92a3.36,3.36,0,0,1,.19.73,17.75,17.75,0,0,1,.31,2.14,7.69,7.69,0,0,1-.31,3.42,1.63,1.63,0,0,1-.28.47,1.32,1.32,0,0,1-.43.38,1.93,1.93,0,0,1-1.15.27,1.43,1.43,0,0,1-1-.74,3.25,3.25,0,0,1-.37-1.24l.31.14a6.61,6.61,0,0,1-1.09.71,1.64,1.64,0,0,1-1.47.05l.31-.24a1.75,1.75,0,0,1-.17,1.23,2.1,2.1,0,0,1-.91.86,3.13,3.13,0,0,1-1.2.38,2.47,2.47,0,0,1-1.28-.24,10.56,10.56,0,0,1-3.81-3.54l-1.2-1.6,1.55,1.26a1.42,1.42,0,0,1,.58,1.15,1.61,1.61,0,0,1-.61,1.12,4.19,4.19,0,0,1-1,.67,3.08,3.08,0,0,1-1.24.2,4,4,0,0,1-2.25-1,8.53,8.53,0,0,1-1.61-1.88,9.88,9.88,0,0,1-.78-1.48,2.32,2.32,0,0,1-.07-1.74,2.12,2.12,0,0,1,1.35-1.1,5.5,5.5,0,0,1,1.61-.23l-.26.25a3.43,3.43,0,0,1,.76-2.25,2.24,2.24,0,0,1,2.29-.46l-.29.35a4.22,4.22,0,0,1-.58-1.87,2,2,0,0,1,1-1.68A2.93,2.93,0,0,1,360,295a5.82,5.82,0,0,1,1.68.4l-.3.2a2,2,0,0,1,.74-1.57,2.93,2.93,0,0,1,1.54-.56,6.18,6.18,0,0,1,2.85.55,6.55,6.55,0,0,1,2.08,1.45,11.45,11.45,0,0,1,1.3,1.69,11.11,11.11,0,0,1,1.25,2.69,3.36,3.36,0,0,1,.21,1s-.1-.35-.33-1a12.15,12.15,0,0,0-1.34-2.59,7.64,7.64,0,0,0-3.31-3,5.69,5.69,0,0,0-2.68-.47,2.55,2.55,0,0,0-1.31.48,1.56,1.56,0,0,0-.56,1.25V296l-.3-.12a5.72,5.72,0,0,0-1.56-.35,2.5,2.5,0,0,0-1.53.28,1.58,1.58,0,0,0-.76,1.28,4,4,0,0,0,.52,1.64l.28.52-.57-.17a1.74,1.74,0,0,0-1.77.35,3,3,0,0,0-.61,1.92v.24h-.25c-.92,0-2.11.22-2.48,1s.28,1.86.82,2.74a8.32,8.32,0,0,0,1.51,1.77A3.56,3.56,0,0,0,357,308a2.47,2.47,0,0,0,1-.17,3.66,3.66,0,0,0,.88-.56,1.2,1.2,0,0,0,.45-.77,1,1,0,0,0-.38-.73l.36-.34a10.32,10.32,0,0,0,3.59,3.39,2.19,2.19,0,0,0,2.08-.1,1.45,1.45,0,0,0,.88-1.58l-.11-.48.42.24a1.21,1.21,0,0,0,1.09-.06,6.35,6.35,0,0,0,1-.64l.28-.21,0,.35c.06.75.4,1.58,1.06,1.66a1.67,1.67,0,0,0,.95-.22,1,1,0,0,0,.34-.29,1.36,1.36,0,0,0,.25-.4,7.82,7.82,0,0,0,.38-3.28c-.05-.92-.14-1.64-.21-2.13A5.21,5.21,0,0,1,371.31,300.92Z" style="fill:#ff9a6c"></path><path d="M358.62,300A25.11,25.11,0,0,1,366,307c-.11.1-1.65-1.6-3.69-3.55S358.53,300.07,358.62,300Z" style="fill:#ff9a6c"></path><path d="M362.19,297.17c0-.06.59.28,1.4.94a16.08,16.08,0,0,1,2.76,3,10.1,10.1,0,0,1,2.09,5.33,27.13,27.13,0,0,0-2.52-5C364.13,298.87,362.07,297.3,362.19,297.17Z" style="fill:#ff9a6c"></path><path d="M355.08,301.9a7.48,7.48,0,0,1,2.57,1.85,7.76,7.76,0,0,1,2,2.42,13,13,0,0,1-2.39-2A13.69,13.69,0,0,1,355.08,301.9Z" style="fill:#ff9a6c"></path></g><g id="freepik--character-1--inject-15"><path d="M175.58,310.27c-5.29,21.08-9.6,43.86-13.23,67.79,0,0-9,18.84-13.11,28.32s-8.2,34.7-8.2,34.7l8.46,1.75s16.92-27.71,20-34.95a102.48,102.48,0,0,1,5.12-10.73s15.88-21,19.47-26.79,16.94-39.42,19-43.26,2-11.83,2-11.83Z" style="fill:#263238"></path><path d="M152,446.18c.48-2.37-.4-8.55-.32-10.84a8,8,0,0,0-.82-3.88l-8.49,2.05c.07.65,0,5.48-1.1,7.17s-3,14.11-3.16,17.53.38,7.28,6.37,7.54,7.9-2.11,8.42-5S151.53,448.56,152,446.18Z" style="fill:#263238"></path><path d="M139.22,449.64c.1,3.74,1,9,5.44,8.95s6.64-4.13,7.63-7a24.61,24.61,0,0,1-.28-5.44c.48-2.37-.4-8.55-.32-10.84a8,8,0,0,0-.82-3.88l-8.49,2.05c.07.65,0,5.48-1.1,7.17C140.7,441.59,139.89,445.6,139.22,449.64Z" style="fill:none"></path><path d="M144.66,458.59c-4.42.05-5.34-5.21-5.44-8.95-.56,3.48-1,7-1.1,8.57-.18,3.42.38,7.28,6.37,7.54s7.9-2.11,8.42-5c.31-1.71-.23-5.69-.62-9.14C151.3,454.46,149.11,458.53,144.66,458.59Z" style="fill:#060C22"></path><path d="M152,446.18c.48-2.37-.4-8.55-.32-10.84a8,8,0,0,0-.82-3.88l-8.49,2.05c.07.65,0,5.48-1.1,7.17s-3,14.11-3.16,17.53.38,7.28,6.37,7.54,7.9-2.11,8.42-5S151.53,448.56,152,446.18Z" style="fill:#263238"></path><path d="M139.22,449.64c.1,3.74,1,9,5.44,8.95s6.64-4.13,7.63-7a24.61,24.61,0,0,1-.28-5.44c.48-2.37-.4-8.55-.32-10.84a8,8,0,0,0-.82-3.88l-8.49,2.05c.07.65,0,5.48-1.1,7.17C140.7,441.59,139.89,445.6,139.22,449.64Z" style="fill:none"></path><path d="M144.66,458.59c-4.42.05-5.34-5.21-5.44-8.95-.56,3.48-1,7-1.1,8.57-.18,3.42.38,7.28,6.37,7.54s7.9-2.11,8.42-5c.31-1.71-.23-5.69-.62-9.14C151.3,454.46,149.11,458.53,144.66,458.59Z" style="fill:#060C22"></path><path d="M227.33,288.92c7.67,8,19.29,4.93,23.25,47,1.38,14.74,1.94,36.7,3.48,41.69s6.45,15,7.22,24.74,3.31,31.12,3.31,31.12l-8.65,6.5s-10.55-23.64-13.89-32.88-3-17.19-6.86-24.43-14.81-33.34-14.81-33.34l-7.3-22.26,4.1-23.31Z" style="fill:#263238"></path><path d="M268.85,458.21c-.18-3.42-2.09-15.84-3.16-17.53s-.7-3.92-1.1-7.17l-8.49-2.05a8,8,0,0,0-.82,3.88c.08,2.29-.8,8.47-.32,10.84s-1.42,11.7-.9,14.58,2.44,5.26,8.42,5S269,461.63,268.85,458.21Z" style="fill:#263238"></path><path d="M255,446.18a24.61,24.61,0,0,1-.28,5.44c1,2.84,3.18,6.91,7.63,7s5.34-5.21,5.43-8.95c-.66-4-1.48-8.05-2.05-9-1.07-1.69-1.17-6.52-1.1-7.17l-8.49-2.05a8,8,0,0,0-.82,3.88C255.36,437.63,254.48,443.81,255,446.18Z" style="fill:none"></path><path d="M262.31,458.59c-4.45-.06-6.64-4.13-7.63-7-.39,3.45-.93,7.43-.62,9.14.52,2.88,2.44,5.26,8.42,5s6.55-4.12,6.37-7.54c-.08-1.58-.54-5.09-1.11-8.57C267.65,453.38,266.73,458.64,262.31,458.59Z" style="fill:#060C22"></path><path d="M211.73,229.49s2.51-2.19,15.66-3.1c8.69-.6,18.86-3.52,19.56-3.35s-10.63-25.57-10.63-25.57l6-3.15s19.69,23.23,20.49,25.57c.87,2.51,3.5,9.7-4.91,15.73-11.75,8.43-26.47,7.65-30.33,8.53s-11.31,6.34-11.31,6.34Z" style="fill:#ffbf9d"></path><path d="M244.65,197.69s-6.31-11.51-5.59-12.9,3.6-9.25,3.07-10.18-.95-.49-1.48.35-3.23,6.57-3.61,6.93.42-12,.42-12-1.69-.51-2.42,1.61a56.16,56.16,0,0,0-1.31,8l-4.14-10.22a4.48,4.48,0,0,0-1.59,3.07c0,1.76,2.93,9.87,2.93,9.87l-11.16,3.28a2.78,2.78,0,0,0,3,1.85c2.54-.07,7.5-1.76,8.19-1.31s0,3.5-1,3.56-7.83-.46-7.83-.46-1.39.89.53,2,5.65.55,7.13,2a53.48,53.48,0,0,0,6.67,4.54s1.58,3.22,2,3.16S244.65,197.69,244.65,197.69Z" style="fill:#ffbf9d"></path><path d="M222.33,274.34l-2-4.78s3.06-2.25,4.32-10c1.22-7.5-10.52-30.48-11.41-30.74-.19,0-3.58-.06-3.58-.06l-29.17-8.65S162.16,247.33,165,260s12.39,26.85,12.39,26.85l3.54,3.69L175.55,311l36.8,17.54h1.45L238,297.11A50.81,50.81,0,0,0,222.33,274.34Z" style="fill:#060C22"></path><polygon points="184.14 221.18 197.06 249.46 209.97 228.64 185.82 221.45 184.14 221.18" style="fill:#ffbf9d"></polygon><path d="M185.82,195.84l10.59,9.71-4.63,9.91A25,25,0,0,1,185.82,195.84Z" style="fill:#263238"></path><path d="M214.72,178.22a15.08,15.08,0,0,0-10-2.29,32,32,0,0,0-10,2.95,15.7,15.7,0,0,0-5,3.09c-2.5,2.55-5.23,5.86-5.59,9.41-.74,7,1.17,13.78,2.2,15.57,1.34,2.29,4.31,3.19,6.82,4.05l26.48-24.94A12,12,0,0,0,214.72,178.22Z" style="fill:#263238"></path><path d="M218.4,182.34l-5.55-1.6c2.31,7.68,1.38,24.6,2.33,32.58,2.4-2.81,8.21-11.51,8.34-15.2S225.18,182.43,218.4,182.34Z" style="fill:#263238"></path><path d="M220.37,194.68c.22-5.68-2.81-13-8.5-13l-13.37,1.95a9.72,9.72,0,0,0-8.2,8.13c0,.22,0-.05-.05.11l.05,12.28-2.08,20c1.56,5.39,9.37,7.75,16.91,9.8.1-.48.78-4.77.78-4.77l.75-7.41s9.32-.27,11.78-9.53C219.67,207.65,220.11,201,220.37,194.68Z" style="fill:#ffbf9d"></path><path d="M215.67,201.77a1.21,1.21,0,0,1-1.29,1.1,1.17,1.17,0,0,1-1.13-1.22,1.21,1.21,0,0,1,1.29-1.1A1.16,1.16,0,0,1,215.67,201.77Z" style="fill:#263238"></path><path d="M218.56,198.22c-.16.15-1-.63-2.31-.76s-2.32.43-2.44.25.12-.34.56-.6a3.38,3.38,0,0,1,2-.4,3.25,3.25,0,0,1,1.82.8C218.54,197.86,218.64,198.16,218.56,198.22Z" style="fill:#263238"></path><path d="M204.81,200.45a1.21,1.21,0,0,1-1.29,1.1,1.17,1.17,0,0,1-1.13-1.22,1.21,1.21,0,0,1,1.29-1.1A1.15,1.15,0,0,1,204.81,200.45Z" style="fill:#263238"></path><path d="M206.22,196.92c-.16.15-1-.63-2.31-.76s-2.32.43-2.44.25.12-.34.56-.6a3.38,3.38,0,0,1,2-.4,3.25,3.25,0,0,1,1.82.8C206.2,196.56,206.3,196.86,206.22,196.92Z" style="fill:#263238"></path><path d="M209.21,207.56a8.49,8.49,0,0,1,2.15-.17c.34,0,.66,0,.74-.25a1.75,1.75,0,0,0-.12-1l-.72-2.62a43.25,43.25,0,0,1-1.53-6.84,43.5,43.5,0,0,1,2.07,6.7c.24.92.47,1.8.68,2.64a1.91,1.91,0,0,1,0,1.32.85.85,0,0,1-.6.42,2.29,2.29,0,0,1-.57,0A9.07,9.07,0,0,1,209.21,207.56Z" style="fill:#263238"></path><path d="M194.51,217.13s2.39,6.79,11.9,6.88l.24-2.22A23.82,23.82,0,0,1,194.51,217.13Z" style="fill:#ff9a6c"></path><path d="M206.31,192.19c-.16.34-1.44,0-3,.06s-2.82.32-3,0c-.07-.16.18-.47.71-.76a5.15,5.15,0,0,1,4.55,0C206.13,191.72,206.38,192,206.31,192.19Z" style="fill:#263238"></path><path d="M218.56,194.2c-.26.28-1.12-.12-2.2-.25s-2,0-2.19-.33c-.07-.16.1-.45.53-.68a3,3,0,0,1,1.84-.3,3.07,3.07,0,0,1,1.69.77C218.58,193.75,218.67,194.07,218.56,194.2Z" style="fill:#263238"></path><path d="M218.71,185.82a4.16,4.16,0,0,0-3.41-2.74,8.18,8.18,0,0,0-4.47.81c-6,2.65-9.66,10.18-15.55,13-1.45.68-3.15-.26-4.42.71a4,4,0,0,0-1.72,4.16,13,13,0,0,1-1.58-3.45,4.47,4.47,0,0,1,.54-3.66c.57-.78,1.48-1.32,1.81-2.23a12.32,12.32,0,0,0,.18-2.52,5.53,5.53,0,0,1,1.12-2.31,24.57,24.57,0,0,1,10-8.53,16.06,16.06,0,0,1,8.48-1.26,12.25,12.25,0,0,1,7.54,3.95c1.11,1.28,2.29,2.61,1.48,4.12" style="fill:#263238"></path><path d="M190.87,198.73c-.07-.28-4.79-2.57-5.41,2.64s4.63,4.61,4.65,4.46S190.87,198.73,190.87,198.73Z" style="fill:#ffbf9d"></path><path d="M188.77,203.74s-.1,0-.25.1a.9.9,0,0,1-.67-.06,2.21,2.21,0,0,1-.78-2.08,3,3,0,0,1,.39-1.23,1,1,0,0,1,.74-.61.47.47,0,0,1,.5.31c.05.15,0,.24,0,.25s.12-.07.1-.28a.53.53,0,0,0-.16-.34.63.63,0,0,0-.47-.19,1.25,1.25,0,0,0-1,.68,3.05,3.05,0,0,0-.46,1.38,2.31,2.31,0,0,0,1,2.34.92.92,0,0,0,.82,0C188.75,203.86,188.79,203.75,188.77,203.74Z" style="fill:#ff9a6c"></path><path d="M189.13,195.91l.32-.14c.21-.1.53-.23.91-.45a17.61,17.61,0,0,0,3-2.2,47.32,47.32,0,0,0,3.81-4,40,40,0,0,1,4.73-4.77,15.8,15.8,0,0,1,2.93-1.85,13.67,13.67,0,0,1,3-1,14.58,14.58,0,0,1,5.45-.09,14.1,14.1,0,0,1,3.52,1.08c.4.17.7.35.9.45a1.58,1.58,0,0,0,.32.15l-.29-.19a9.57,9.57,0,0,0-.89-.49,13.24,13.24,0,0,0-3.54-1.16,14.6,14.6,0,0,0-5.51,0,13.62,13.62,0,0,0-3.11,1,16.26,16.26,0,0,0-3,1.88A38.29,38.29,0,0,0,197,189c-1.37,1.56-2.61,3-3.76,4a19.07,19.07,0,0,1-2.94,2.24c-.37.23-.68.37-.88.49A1.39,1.39,0,0,0,189.13,195.91Z" style="fill:#455a64"></path><path d="M190.25,197.48a7.91,7.91,0,0,0,.07,4.13c.51,1.3,2,2.31,3.31,1.75,1-.46,1.47-1.69,1.76-2.79.82-3.18,1.38-6.42,2.23-9.6Z" style="fill:#263238"></path><path d="M217.72,183.27s-.44-.13-1.25-.24a8.58,8.58,0,0,0-3.42.26,10.86,10.86,0,0,0-2.22.86,21.67,21.67,0,0,0-2.34,1.43,25.87,25.87,0,0,0-4.73,4.13c-.74.83-1.41,1.7-2.12,2.5a12.55,12.55,0,0,1-2.27,2.07,22.34,22.34,0,0,1-4.59,2.42c-1.37.55-2.5.91-3.29,1.17l-.9.28a1.11,1.11,0,0,1-.33.07l.31-.13.89-.33c.77-.28,1.89-.68,3.24-1.25a23.43,23.43,0,0,0,4.52-2.44,12.81,12.81,0,0,0,2.21-2c.7-.78,1.37-1.66,2.11-2.5a25.66,25.66,0,0,1,4.8-4.16,21,21,0,0,1,2.38-1.42,10.88,10.88,0,0,1,2.28-.85,8.25,8.25,0,0,1,3.49-.17,5.74,5.74,0,0,1,.92.23A1.41,1.41,0,0,1,217.72,183.27Z" style="fill:#455a64"></path><path d="M190.92,193.79a1.79,1.79,0,0,1-.48.26l-1.37.61-.45.21a1.34,1.34,0,0,1-.58.12.52.52,0,0,1-.33-.11.45.45,0,0,1-.16-.36,1.14,1.14,0,0,1,.31-.62l1.74-2.23.18.21a5,5,0,0,1-1.71.64,5.43,5.43,0,0,1-1.84,0,1.53,1.53,0,0,1-.45-.13.64.64,0,0,1-.36-.39.54.54,0,0,1,.14-.5,2.8,2.8,0,0,1,.32-.29,10.73,10.73,0,0,0,2-2,18.19,18.19,0,0,0,1.34-2.22,2.32,2.32,0,0,1-.23.66,9.43,9.43,0,0,1-.95,1.68,10.57,10.57,0,0,1-1.95,2.08c-.21.16-.42.35-.37.51s.33.28.59.31a5.09,5.09,0,0,0,1.74,0,5.22,5.22,0,0,0,1.63-.6l.65-.38-.47.59-1.77,2.21a1,1,0,0,0-.27.47.26.26,0,0,0,.27.25,2.89,2.89,0,0,0,.95-.28l1.4-.55A1.93,1.93,0,0,1,190.92,193.79Z" style="fill:#455a64"></path><path d="M207.83,209.91a2.31,2.31,0,0,0-2-1,2.05,2.05,0,0,0-1.48.65,1.27,1.27,0,0,0-.21,1.46,1.56,1.56,0,0,0,1.62.53,4.73,4.73,0,0,0,1.67-.82,1.38,1.38,0,0,0,.38-.34.41.41,0,0,0,0-.46" style="fill:#ff9a6c"></path><path d="M204.82,207.55c.2,0,.11,1.34,1.2,2.38s2.56,1,2.56,1.19-.34.23-1,.21a3.49,3.49,0,0,1-2.14-.92,3,3,0,0,1-.92-2C204.55,207.86,204.73,207.54,204.82,207.55Z" style="fill:#263238"></path><path d="M187,163.4c-.4.71-.9,19.26-.9,19.26s14.58,5.78,15.42,5.85,21.27-1.14,21.27-1.14-3-7.9-2.15-14.39c.65-4.68.12-6.8.12-6.8S188.09,161.49,187,163.4Z" style="fill:#263238"></path><path d="M179.75,183c.27.51,10,6.08,20.62,7.65,15.43,2.3,22.8.25,26-1.32a2.11,2.11,0,0,0-.46-4,2.43,2.43,0,0,0-.38,0,55.9,55.9,0,0,1-14.52,1.8c-13.72.15-26.26-6-28.74-6.8S178.67,181,179.75,183Z" style="fill:#263238"></path><path d="M179.75,183a2.51,2.51,0,0,1-.42-1,1.79,1.79,0,0,1,.15-1.29,1.71,1.71,0,0,1,1.59-.73,6.36,6.36,0,0,1,2.13.56l2.42.95c1.74.68,3.73,1.41,6,2.13a59.4,59.4,0,0,0,25.78,2.89,50.13,50.13,0,0,0,5.07-.77c.85-.18,1.68-.4,2.55-.62a2.23,2.23,0,0,1,2.55,1.14,2.48,2.48,0,0,1-.41,2.78,3.56,3.56,0,0,1-1.2.74c-.41.18-.82.35-1.24.49a26.15,26.15,0,0,1-5.06,1.19,51.45,51.45,0,0,1-9.77.35,68.79,68.79,0,0,1-16.31-2.54,61.46,61.46,0,0,1-10.33-4.15c-2.34-1.2-3.53-2.07-3.46-2.15l.21.16c.15.1.37.24.67.41.6.34,1.49.83,2.67,1.4a67.09,67.09,0,0,0,10.35,4,70,70,0,0,0,16.23,2.41,52.93,52.93,0,0,0,9.67-.37,25.72,25.72,0,0,0,5-1.18c.41-.13.8-.3,1.2-.47a3.14,3.14,0,0,0,1-.63,2,2,0,0,0,.31-2.19,1.69,1.69,0,0,0-2-.86c-.84.21-1.71.44-2.57.61a48.8,48.8,0,0,1-5.12.78,65.74,65.74,0,0,1-9.76.23A64.74,64.74,0,0,1,191.47,184c-2.24-.74-4.23-1.5-5.95-2.21l-2.41-1a6.24,6.24,0,0,0-2.05-.59,1.56,1.56,0,0,0-1.45.61,1.69,1.69,0,0,0-.18,1.19A6.66,6.66,0,0,0,179.75,183Z" style="fill:#455a64"></path><path d="M181.35,220.35s-5.78-4.65-11.7-1.16c-10.45,6.14-15.54,46.05-14,51.47S192.44,304,193.48,304s7.39-4.47,7.39-4.47L174,262.19Z" style="fill:#ffbf9d"></path><path d="M208.77,297.51a4.78,4.78,0,0,0-2.92-.32,10.42,10.42,0,0,0-5.67,2.78l-11.11,4.34c1.33.71,4.89,4.21,6.36,4.6a6.6,6.6,0,0,0,4.45-.22c2.65-1.24,3.76-4.57,6.33-5.95.74-.39,1.56-.6,2.3-1a2.8,2.8,0,0,0,1.61-1.81A2.38,2.38,0,0,0,208.77,297.51Z" style="fill:#ffbf9d"></path><path d="M208.77,297.51a1.21,1.21,0,0,1,.46.24,2.52,2.52,0,0,1,.91,1.18,2.13,2.13,0,0,1-.57,2.26,8.1,8.1,0,0,1-2.75,1.47,7.42,7.42,0,0,0-2.79,2.28,22.22,22.22,0,0,1-2.88,3.23,5.61,5.61,0,0,1-2.15,1.09,6.71,6.71,0,0,1-2.49.12,6.28,6.28,0,0,1-1.26-.26,5.53,5.53,0,0,1-1.18-.63c-.71-.49-1.39-1-2.07-1.58a34.74,34.74,0,0,0-3.05-2.38l-.46-.28.48-.18,11.14-4.29-.07,0a10.43,10.43,0,0,1,6.24-2.8,4.91,4.91,0,0,1,1.89.19,1.62,1.62,0,0,1,.6.3,5.24,5.24,0,0,0-2.47-.26,10.44,10.44,0,0,0-6,2.87l0,0,0,0-11.09,4.39,0-.47a32.07,32.07,0,0,1,3.14,2.43c.68.54,1.34,1.08,2,1.55a4.87,4.87,0,0,0,1,.57,7.6,7.6,0,0,0,1.17.25,5.53,5.53,0,0,0,4.28-1.08,23.73,23.73,0,0,0,2.85-3.13,7.82,7.82,0,0,1,3-2.35,7.69,7.69,0,0,0,2.69-1.34,1.88,1.88,0,0,0,.59-2,2.6,2.6,0,0,0-.79-1.17C208.91,297.61,208.76,297.53,208.77,297.51Z" style="fill:#ff9a6c"></path><path d="M195.68,304V463.1c0,3.22,5,3.22,5,0V304c0-3.21-5-3.22-5,0Z" style="fill:#455a64"></path><path d="M202.69,298a10.29,10.29,0,0,0-2.64-4.91c-2.21-2.32-6.42-2.53-6.42,0,0,0-3.1-1.28-3.83.93-.26.76.46,2,.46,2s-2.42-.85-2.52,2.31c0,0-3.87-.13-2.26,3,1.31,2.52,3.41,4.27,5.31,3.11s.57-2.14.57-2.14,2.69,3.93,4.79,3.4,1.69-2,1.69-2c.63.34,1.4-.1,2.17-.68,0,0,.15,2.36,2,1.52S202.69,298,202.69,298Z" style="fill:#ffbf9d"></path><path d="M202.69,298a2.51,2.51,0,0,1,.19.67,19,19,0,0,1,.29,2,7,7,0,0,1-.29,3.18,1.65,1.65,0,0,1-.26.44,1.3,1.3,0,0,1-.41.36,1.81,1.81,0,0,1-1.07.25,1.33,1.33,0,0,1-1-.69,3.06,3.06,0,0,1-.34-1.16l.31.14a6.4,6.4,0,0,1-1,.66,1.5,1.5,0,0,1-1.37.05l.3-.24a1.77,1.77,0,0,1-1,2,2.89,2.89,0,0,1-1.12.35,2.34,2.34,0,0,1-1.2-.22,10,10,0,0,1-3.56-3.3l-1.19-1.6,1.55,1.26a1.39,1.39,0,0,1,.55,1.09,1.56,1.56,0,0,1-.58,1.05,3.54,3.54,0,0,1-.95.62,2.87,2.87,0,0,1-1.16.2,3.78,3.78,0,0,1-2.11-1,8.08,8.08,0,0,1-1.49-1.75A8.24,8.24,0,0,1,185,301a2.18,2.18,0,0,1-.07-1.63,2,2,0,0,1,1.27-1,4.83,4.83,0,0,1,1.5-.22l-.26.25a3.26,3.26,0,0,1,.71-2.11,2.14,2.14,0,0,1,2.15-.43l-.29.36a3.82,3.82,0,0,1-.54-1.76,1.9,1.9,0,0,1,.94-1.57,2.71,2.71,0,0,1,1.69-.32,5.47,5.47,0,0,1,1.57.38l-.3.2a1.9,1.9,0,0,1,.69-1.48,2.84,2.84,0,0,1,1.44-.52,5.75,5.75,0,0,1,2.66.51,7.35,7.35,0,0,1,3.15,2.93,10.08,10.08,0,0,1,1.15,2.51,2.76,2.76,0,0,1,.19,1s-.09-.33-.31-.92a11.28,11.28,0,0,0-1.24-2.41,7.18,7.18,0,0,0-3.09-2.74,5.19,5.19,0,0,0-2.47-.44,2.38,2.38,0,0,0-1.22.45,1.42,1.42,0,0,0-.51,1.15v.31l-.29-.11a5.39,5.39,0,0,0-1.44-.33,2.28,2.28,0,0,0-1.42.27,1.44,1.44,0,0,0-.7,1.17,3.61,3.61,0,0,0,.48,1.51l.29.53-.58-.17a1.62,1.62,0,0,0-1.63.31,2.82,2.82,0,0,0-.56,1.78v.24h-.26c-.85,0-1.95.19-2.28.93s.25,1.71.76,2.53c.78,1.2,1.87,2.36,3.19,2.48a2.39,2.39,0,0,0,1.74-.67,1.06,1.06,0,0,0,.41-.7.82.82,0,0,0-.34-.67l.36-.34a9.64,9.64,0,0,0,3.32,3.15,2,2,0,0,0,1.93-.09,1.34,1.34,0,0,0,.81-1.46l-.11-.48.42.24a1.11,1.11,0,0,0,1-.05,5.45,5.45,0,0,0,.95-.6l.29-.21,0,.35c.06.7.38,1.46,1,1.54a1.55,1.55,0,0,0,.87-.2,1,1,0,0,0,.32-.27,1.16,1.16,0,0,0,.23-.37,7,7,0,0,0,.35-3c0-.86-.13-1.53-.18-2A6.9,6.9,0,0,1,202.69,298Z" style="fill:#ff9a6c"></path><path d="M190.89,297.1a22.69,22.69,0,0,1,6.88,6.59,41,41,0,0,1-3.45-3.29A42.56,42.56,0,0,1,190.89,297.1Z" style="fill:#ff9a6c"></path><path d="M194.21,294.52a11.12,11.12,0,0,1,3.88,3.66,9.13,9.13,0,0,1,1.93,5,25.69,25.69,0,0,0-2.35-4.67C196,296.11,194.1,294.65,194.21,294.52Z" style="fill:#ff9a6c"></path><path d="M187.6,298.92a6.69,6.69,0,0,1,2.41,1.7,6.8,6.8,0,0,1,1.88,2.27,11,11,0,0,1-2.24-1.89A11.38,11.38,0,0,1,187.6,298.92Z" style="fill:#ff9a6c"></path></g></svg>
